<mxfile host="app.diagrams.net" agent="Mozilla/5.0 (Windows NT 10.0; Win64; x64) AppleWebKit/537.36 (KHTML, like Gecko) Chrome/133.0.0.0 Safari/537.36" version="26.1.0">
  <diagram name="Page-1" id="UiUzkCV8bTqbFJQ-Q_vU">
    <mxGraphModel dx="244" dy="1300" grid="1" gridSize="10" guides="1" tooltips="1" connect="1" arrows="1" fold="1" page="1" pageScale="1" pageWidth="827" pageHeight="1169" math="0" shadow="0">
      <root>
        <mxCell id="0" />
        <mxCell id="1" parent="0" />
        <mxCell id="Orui0hAEhWIHDiH9NPAQ-79" value="" style="group" parent="1" vertex="1" connectable="0">
          <mxGeometry x="730" y="-1110" width="80" height="160" as="geometry" />
        </mxCell>
        <mxCell id="Orui0hAEhWIHDiH9NPAQ-80" value="" style="rounded=0;whiteSpace=wrap;html=1;" parent="Orui0hAEhWIHDiH9NPAQ-79" vertex="1">
          <mxGeometry width="80" height="130" as="geometry" />
        </mxCell>
        <mxCell id="Orui0hAEhWIHDiH9NPAQ-81" value="Motor 1 (F)" style="text;html=1;align=center;verticalAlign=middle;whiteSpace=wrap;rounded=0;" parent="Orui0hAEhWIHDiH9NPAQ-79" vertex="1">
          <mxGeometry width="80" height="20" as="geometry" />
        </mxCell>
        <mxCell id="Orui0hAEhWIHDiH9NPAQ-82" value="    + (12V)" style="shape=waypoint;sketch=0;fillStyle=solid;size=6;pointerEvents=1;points=[];fillColor=none;resizable=0;rotatable=0;perimeter=centerPerimeter;snapToPoint=1;align=left;" parent="Orui0hAEhWIHDiH9NPAQ-79" vertex="1">
          <mxGeometry y="20" width="20" height="20" as="geometry" />
        </mxCell>
        <mxCell id="Orui0hAEhWIHDiH9NPAQ-83" value="    -" style="shape=waypoint;sketch=0;fillStyle=solid;size=6;pointerEvents=1;points=[];fillColor=default;resizable=0;rotatable=0;perimeter=centerPerimeter;snapToPoint=1;align=left;" parent="Orui0hAEhWIHDiH9NPAQ-79" vertex="1">
          <mxGeometry y="40" width="20" height="20" as="geometry" />
        </mxCell>
        <mxCell id="Orui0hAEhWIHDiH9NPAQ-84" value="" style="rounded=0;whiteSpace=wrap;html=1;" parent="Orui0hAEhWIHDiH9NPAQ-79" vertex="1">
          <mxGeometry y="60" width="80" height="99.99999999999999" as="geometry" />
        </mxCell>
        <mxCell id="Orui0hAEhWIHDiH9NPAQ-85" value="Encoder 1" style="text;html=1;align=center;verticalAlign=middle;whiteSpace=wrap;rounded=0;" parent="Orui0hAEhWIHDiH9NPAQ-79" vertex="1">
          <mxGeometry x="10" y="60" width="60" height="20" as="geometry" />
        </mxCell>
        <mxCell id="Orui0hAEhWIHDiH9NPAQ-86" value="    VCC (3,3V)" style="shape=waypoint;sketch=0;fillStyle=solid;size=6;pointerEvents=1;points=[];fillColor=none;resizable=0;rotatable=0;perimeter=centerPerimeter;snapToPoint=1;align=left;" parent="Orui0hAEhWIHDiH9NPAQ-79" vertex="1">
          <mxGeometry y="80" width="20" height="20" as="geometry" />
        </mxCell>
        <mxCell id="Orui0hAEhWIHDiH9NPAQ-87" value="    GND" style="shape=waypoint;sketch=0;fillStyle=solid;size=6;pointerEvents=1;points=[];fillColor=none;resizable=0;rotatable=0;perimeter=centerPerimeter;snapToPoint=1;align=left;" parent="Orui0hAEhWIHDiH9NPAQ-79" vertex="1">
          <mxGeometry y="100" width="20" height="20" as="geometry" />
        </mxCell>
        <mxCell id="Orui0hAEhWIHDiH9NPAQ-88" value="    Trigger A" style="shape=waypoint;sketch=0;fillStyle=solid;size=6;pointerEvents=1;points=[];fillColor=none;resizable=0;rotatable=0;perimeter=centerPerimeter;snapToPoint=1;align=left;" parent="Orui0hAEhWIHDiH9NPAQ-79" vertex="1">
          <mxGeometry y="120" width="20" height="20" as="geometry" />
        </mxCell>
        <mxCell id="Orui0hAEhWIHDiH9NPAQ-89" value="    Trigger B" style="shape=waypoint;sketch=0;fillStyle=solid;size=6;pointerEvents=1;points=[];fillColor=none;resizable=0;rotatable=0;perimeter=centerPerimeter;snapToPoint=1;align=left;" parent="Orui0hAEhWIHDiH9NPAQ-79" vertex="1">
          <mxGeometry y="140" width="20" height="20" as="geometry" />
        </mxCell>
        <mxCell id="Orui0hAEhWIHDiH9NPAQ-92" value="" style="group" parent="1" vertex="1" connectable="0">
          <mxGeometry x="730" y="-930" width="80" height="160" as="geometry" />
        </mxCell>
        <mxCell id="Orui0hAEhWIHDiH9NPAQ-93" value="" style="rounded=0;whiteSpace=wrap;html=1;" parent="Orui0hAEhWIHDiH9NPAQ-92" vertex="1">
          <mxGeometry width="80" height="130" as="geometry" />
        </mxCell>
        <mxCell id="Orui0hAEhWIHDiH9NPAQ-94" value="Motor 2 (BL)" style="text;html=1;align=center;verticalAlign=middle;whiteSpace=wrap;rounded=0;" parent="Orui0hAEhWIHDiH9NPAQ-92" vertex="1">
          <mxGeometry width="80" height="20" as="geometry" />
        </mxCell>
        <mxCell id="Orui0hAEhWIHDiH9NPAQ-95" value="    + (12V)" style="shape=waypoint;sketch=0;fillStyle=solid;size=6;pointerEvents=1;points=[];fillColor=none;resizable=0;rotatable=0;perimeter=centerPerimeter;snapToPoint=1;align=left;" parent="Orui0hAEhWIHDiH9NPAQ-92" vertex="1">
          <mxGeometry y="20" width="20" height="20" as="geometry" />
        </mxCell>
        <mxCell id="Orui0hAEhWIHDiH9NPAQ-96" value="    -" style="shape=waypoint;sketch=0;fillStyle=solid;size=6;pointerEvents=1;points=[];fillColor=default;resizable=0;rotatable=0;perimeter=centerPerimeter;snapToPoint=1;align=left;" parent="Orui0hAEhWIHDiH9NPAQ-92" vertex="1">
          <mxGeometry y="40" width="20" height="20" as="geometry" />
        </mxCell>
        <mxCell id="Orui0hAEhWIHDiH9NPAQ-97" value="" style="rounded=0;whiteSpace=wrap;html=1;" parent="Orui0hAEhWIHDiH9NPAQ-92" vertex="1">
          <mxGeometry y="60" width="80" height="99.99999999999999" as="geometry" />
        </mxCell>
        <mxCell id="Orui0hAEhWIHDiH9NPAQ-98" value="Encoder 2" style="text;html=1;align=center;verticalAlign=middle;whiteSpace=wrap;rounded=0;" parent="Orui0hAEhWIHDiH9NPAQ-92" vertex="1">
          <mxGeometry x="10" y="60" width="60" height="20" as="geometry" />
        </mxCell>
        <mxCell id="Orui0hAEhWIHDiH9NPAQ-99" value="    VCC (3,3V)" style="shape=waypoint;sketch=0;fillStyle=solid;size=6;pointerEvents=1;points=[];fillColor=none;resizable=0;rotatable=0;perimeter=centerPerimeter;snapToPoint=1;align=left;" parent="Orui0hAEhWIHDiH9NPAQ-92" vertex="1">
          <mxGeometry y="80" width="20" height="20" as="geometry" />
        </mxCell>
        <mxCell id="Orui0hAEhWIHDiH9NPAQ-100" value="    GND" style="shape=waypoint;sketch=0;fillStyle=solid;size=6;pointerEvents=1;points=[];fillColor=none;resizable=0;rotatable=0;perimeter=centerPerimeter;snapToPoint=1;align=left;" parent="Orui0hAEhWIHDiH9NPAQ-92" vertex="1">
          <mxGeometry y="100" width="20" height="20" as="geometry" />
        </mxCell>
        <mxCell id="Orui0hAEhWIHDiH9NPAQ-101" value="    Trigger A" style="shape=waypoint;sketch=0;fillStyle=solid;size=6;pointerEvents=1;points=[];fillColor=none;resizable=0;rotatable=0;perimeter=centerPerimeter;snapToPoint=1;align=left;" parent="Orui0hAEhWIHDiH9NPAQ-92" vertex="1">
          <mxGeometry y="120" width="20" height="20" as="geometry" />
        </mxCell>
        <mxCell id="Orui0hAEhWIHDiH9NPAQ-102" value="    Trigger B" style="shape=waypoint;sketch=0;fillStyle=solid;size=6;pointerEvents=1;points=[];fillColor=none;resizable=0;rotatable=0;perimeter=centerPerimeter;snapToPoint=1;align=left;" parent="Orui0hAEhWIHDiH9NPAQ-92" vertex="1">
          <mxGeometry y="140" width="20" height="20" as="geometry" />
        </mxCell>
        <mxCell id="Orui0hAEhWIHDiH9NPAQ-114" value="" style="group" parent="1" vertex="1" connectable="0">
          <mxGeometry x="730" y="-750" width="80" height="160" as="geometry" />
        </mxCell>
        <mxCell id="Orui0hAEhWIHDiH9NPAQ-115" value="" style="rounded=0;whiteSpace=wrap;html=1;" parent="Orui0hAEhWIHDiH9NPAQ-114" vertex="1">
          <mxGeometry width="80" height="130" as="geometry" />
        </mxCell>
        <mxCell id="Orui0hAEhWIHDiH9NPAQ-116" value="Motor 3 (BR)" style="text;html=1;align=center;verticalAlign=middle;whiteSpace=wrap;rounded=0;" parent="Orui0hAEhWIHDiH9NPAQ-114" vertex="1">
          <mxGeometry width="80" height="20" as="geometry" />
        </mxCell>
        <mxCell id="Orui0hAEhWIHDiH9NPAQ-117" value="    + (12V)" style="shape=waypoint;sketch=0;fillStyle=solid;size=6;pointerEvents=1;points=[];fillColor=none;resizable=0;rotatable=0;perimeter=centerPerimeter;snapToPoint=1;align=left;" parent="Orui0hAEhWIHDiH9NPAQ-114" vertex="1">
          <mxGeometry y="20" width="20" height="20" as="geometry" />
        </mxCell>
        <mxCell id="Orui0hAEhWIHDiH9NPAQ-118" value="    -" style="shape=waypoint;sketch=0;fillStyle=solid;size=6;pointerEvents=1;points=[];fillColor=default;resizable=0;rotatable=0;perimeter=centerPerimeter;snapToPoint=1;align=left;" parent="Orui0hAEhWIHDiH9NPAQ-114" vertex="1">
          <mxGeometry y="40" width="20" height="20" as="geometry" />
        </mxCell>
        <mxCell id="Orui0hAEhWIHDiH9NPAQ-119" value="" style="rounded=0;whiteSpace=wrap;html=1;" parent="Orui0hAEhWIHDiH9NPAQ-114" vertex="1">
          <mxGeometry y="60" width="80" height="99.99999999999999" as="geometry" />
        </mxCell>
        <mxCell id="Orui0hAEhWIHDiH9NPAQ-120" value="Encoder 3" style="text;html=1;align=center;verticalAlign=middle;whiteSpace=wrap;rounded=0;" parent="Orui0hAEhWIHDiH9NPAQ-114" vertex="1">
          <mxGeometry x="10" y="60" width="60" height="20" as="geometry" />
        </mxCell>
        <mxCell id="Orui0hAEhWIHDiH9NPAQ-121" value="    VCC (3,3V)" style="shape=waypoint;sketch=0;fillStyle=solid;size=6;pointerEvents=1;points=[];fillColor=none;resizable=0;rotatable=0;perimeter=centerPerimeter;snapToPoint=1;align=left;" parent="Orui0hAEhWIHDiH9NPAQ-114" vertex="1">
          <mxGeometry y="80" width="20" height="20" as="geometry" />
        </mxCell>
        <mxCell id="Orui0hAEhWIHDiH9NPAQ-122" value="    GND" style="shape=waypoint;sketch=0;fillStyle=solid;size=6;pointerEvents=1;points=[];fillColor=none;resizable=0;rotatable=0;perimeter=centerPerimeter;snapToPoint=1;align=left;" parent="Orui0hAEhWIHDiH9NPAQ-114" vertex="1">
          <mxGeometry y="100" width="20" height="20" as="geometry" />
        </mxCell>
        <mxCell id="Orui0hAEhWIHDiH9NPAQ-123" value="    Trigger A" style="shape=waypoint;sketch=0;fillStyle=solid;size=6;pointerEvents=1;points=[];fillColor=none;resizable=0;rotatable=0;perimeter=centerPerimeter;snapToPoint=1;align=left;" parent="Orui0hAEhWIHDiH9NPAQ-114" vertex="1">
          <mxGeometry y="120" width="20" height="20" as="geometry" />
        </mxCell>
        <mxCell id="Orui0hAEhWIHDiH9NPAQ-124" value="    Trigger B" style="shape=waypoint;sketch=0;fillStyle=solid;size=6;pointerEvents=1;points=[];fillColor=none;resizable=0;rotatable=0;perimeter=centerPerimeter;snapToPoint=1;align=left;" parent="Orui0hAEhWIHDiH9NPAQ-114" vertex="1">
          <mxGeometry y="140" width="20" height="20" as="geometry" />
        </mxCell>
        <mxCell id="Orui0hAEhWIHDiH9NPAQ-154" value="" style="group" parent="1" vertex="1" connectable="0">
          <mxGeometry x="30" y="-1150" width="130" height="60" as="geometry" />
        </mxCell>
        <mxCell id="Orui0hAEhWIHDiH9NPAQ-149" value="" style="rounded=0;whiteSpace=wrap;html=1;" parent="Orui0hAEhWIHDiH9NPAQ-154" vertex="1">
          <mxGeometry width="130" height="60" as="geometry" />
        </mxCell>
        <mxCell id="Orui0hAEhWIHDiH9NPAQ-150" value="LiPo" style="text;html=1;align=center;verticalAlign=middle;whiteSpace=wrap;rounded=0;" parent="Orui0hAEhWIHDiH9NPAQ-154" vertex="1">
          <mxGeometry width="130" height="20" as="geometry" />
        </mxCell>
        <mxCell id="Orui0hAEhWIHDiH9NPAQ-151" value="VCC (25.2V - 20.5V    " style="shape=waypoint;sketch=0;fillStyle=solid;size=6;pointerEvents=1;points=[];fillColor=none;resizable=0;rotatable=0;perimeter=centerPerimeter;snapToPoint=1;align=right;" parent="Orui0hAEhWIHDiH9NPAQ-154" vertex="1">
          <mxGeometry x="110" y="19.99666666666667" width="20" height="20" as="geometry" />
        </mxCell>
        <mxCell id="Orui0hAEhWIHDiH9NPAQ-152" value="GND    " style="shape=waypoint;sketch=0;fillStyle=solid;size=6;pointerEvents=1;points=[];fillColor=none;resizable=0;rotatable=0;perimeter=centerPerimeter;snapToPoint=1;align=right;" parent="Orui0hAEhWIHDiH9NPAQ-154" vertex="1">
          <mxGeometry x="110" y="39.99333333333334" width="20" height="20" as="geometry" />
        </mxCell>
        <mxCell id="Orui0hAEhWIHDiH9NPAQ-153" value="" style="edgeStyle=segmentEdgeStyle;endArrow=none;html=1;curved=0;rounded=0;endSize=8;startSize=8;startFill=0;entryX=0.66;entryY=-0.058;entryDx=0;entryDy=0;entryPerimeter=0;" parent="Orui0hAEhWIHDiH9NPAQ-154" source="Orui0hAEhWIHDiH9NPAQ-152" target="Orui0hAEhWIHDiH9NPAQ-152" edge="1">
          <mxGeometry width="50" height="50" relative="1" as="geometry">
            <mxPoint x="40" y="93.33333333333337" as="sourcePoint" />
            <mxPoint y="66.66666666666663" as="targetPoint" />
            <Array as="points" />
          </mxGeometry>
        </mxCell>
        <mxCell id="Orui0hAEhWIHDiH9NPAQ-171" value="" style="group" parent="1" vertex="1" connectable="0">
          <mxGeometry x="179.45" y="-1150" width="170" height="60" as="geometry" />
        </mxCell>
        <mxCell id="Orui0hAEhWIHDiH9NPAQ-161" value="" style="rounded=0;whiteSpace=wrap;html=1;" parent="Orui0hAEhWIHDiH9NPAQ-171" vertex="1">
          <mxGeometry width="170" height="60" as="geometry" />
        </mxCell>
        <mxCell id="Orui0hAEhWIHDiH9NPAQ-164" value="Low voltage Disconnect switch" style="text;html=1;align=center;verticalAlign=middle;whiteSpace=wrap;rounded=0;" parent="Orui0hAEhWIHDiH9NPAQ-171" vertex="1">
          <mxGeometry width="170" height="20" as="geometry" />
        </mxCell>
        <mxCell id="Orui0hAEhWIHDiH9NPAQ-165" value="    VCC IN" style="shape=waypoint;sketch=0;fillStyle=solid;size=6;pointerEvents=1;points=[];fillColor=none;resizable=0;rotatable=0;perimeter=centerPerimeter;snapToPoint=1;align=left;" parent="Orui0hAEhWIHDiH9NPAQ-171" vertex="1">
          <mxGeometry y="20" width="20" height="20" as="geometry" />
        </mxCell>
        <mxCell id="Orui0hAEhWIHDiH9NPAQ-166" value="    GND IN" style="shape=waypoint;sketch=0;fillStyle=solid;size=6;pointerEvents=1;points=[];fillColor=none;resizable=0;rotatable=0;perimeter=centerPerimeter;snapToPoint=1;align=left;" parent="Orui0hAEhWIHDiH9NPAQ-171" vertex="1">
          <mxGeometry y="40" width="20" height="20" as="geometry" />
        </mxCell>
        <mxCell id="Orui0hAEhWIHDiH9NPAQ-167" value="GND OUT    " style="shape=waypoint;sketch=0;fillStyle=solid;size=6;pointerEvents=1;points=[];fillColor=none;resizable=0;rotatable=0;perimeter=centerPerimeter;snapToPoint=1;align=right;" parent="Orui0hAEhWIHDiH9NPAQ-171" vertex="1">
          <mxGeometry x="150" y="40" width="20" height="20" as="geometry" />
        </mxCell>
        <mxCell id="Orui0hAEhWIHDiH9NPAQ-168" value="VCC OUT    " style="shape=waypoint;sketch=0;fillStyle=solid;size=6;pointerEvents=1;points=[];fillColor=none;resizable=0;rotatable=0;perimeter=centerPerimeter;snapToPoint=1;align=right;" parent="Orui0hAEhWIHDiH9NPAQ-171" vertex="1">
          <mxGeometry x="150" y="20" width="20" height="20" as="geometry" />
        </mxCell>
        <mxCell id="Orui0hAEhWIHDiH9NPAQ-180" style="edgeStyle=orthogonalEdgeStyle;rounded=0;orthogonalLoop=1;jettySize=auto;html=1;endArrow=none;startFill=0;" parent="1" source="Orui0hAEhWIHDiH9NPAQ-151" target="Orui0hAEhWIHDiH9NPAQ-165" edge="1">
          <mxGeometry relative="1" as="geometry" />
        </mxCell>
        <mxCell id="Orui0hAEhWIHDiH9NPAQ-181" style="edgeStyle=orthogonalEdgeStyle;rounded=0;orthogonalLoop=1;jettySize=auto;html=1;entryX=0.595;entryY=0.36;entryDx=0;entryDy=0;entryPerimeter=0;endArrow=none;startFill=0;" parent="1" source="Orui0hAEhWIHDiH9NPAQ-152" target="Orui0hAEhWIHDiH9NPAQ-166" edge="1">
          <mxGeometry relative="1" as="geometry" />
        </mxCell>
        <mxCell id="Orui0hAEhWIHDiH9NPAQ-187" value="" style="group" parent="1" vertex="1" connectable="0">
          <mxGeometry x="600" y="-770" width="100.55333333333328" height="120" as="geometry" />
        </mxCell>
        <mxCell id="Orui0hAEhWIHDiH9NPAQ-188" value="" style="rounded=0;whiteSpace=wrap;html=1;" parent="Orui0hAEhWIHDiH9NPAQ-187" vertex="1">
          <mxGeometry x="0.5499999999999545" width="100" height="120" as="geometry" />
        </mxCell>
        <mxCell id="Orui0hAEhWIHDiH9NPAQ-189" value="Motortreiber 3" style="text;html=1;align=center;verticalAlign=middle;whiteSpace=wrap;rounded=0;" parent="Orui0hAEhWIHDiH9NPAQ-187" vertex="1">
          <mxGeometry width="100.55" height="20" as="geometry" />
        </mxCell>
        <mxCell id="Orui0hAEhWIHDiH9NPAQ-190" value="+    " style="shape=waypoint;sketch=0;fillStyle=solid;size=6;pointerEvents=1;points=[];fillColor=none;resizable=0;rotatable=0;perimeter=centerPerimeter;snapToPoint=1;align=right;" parent="Orui0hAEhWIHDiH9NPAQ-187" vertex="1">
          <mxGeometry x="80.55333333333328" y="20" width="20" height="20" as="geometry" />
        </mxCell>
        <mxCell id="Orui0hAEhWIHDiH9NPAQ-191" value="-    " style="shape=waypoint;sketch=0;fillStyle=solid;size=6;pointerEvents=1;points=[];fillColor=none;resizable=0;rotatable=0;perimeter=centerPerimeter;snapToPoint=1;align=right;" parent="Orui0hAEhWIHDiH9NPAQ-187" vertex="1">
          <mxGeometry x="80.55333333333328" y="40" width="20" height="20" as="geometry" />
        </mxCell>
        <mxCell id="Orui0hAEhWIHDiH9NPAQ-192" value="    PWM" style="shape=waypoint;sketch=0;fillStyle=solid;size=6;pointerEvents=1;points=[];fillColor=none;resizable=0;rotatable=0;perimeter=centerPerimeter;snapToPoint=1;align=left;" parent="Orui0hAEhWIHDiH9NPAQ-187" vertex="1">
          <mxGeometry x="0.5499999999999545" y="60" width="20" height="20" as="geometry" />
        </mxCell>
        <mxCell id="Orui0hAEhWIHDiH9NPAQ-193" value="    Forward" style="shape=waypoint;sketch=0;fillStyle=solid;size=6;pointerEvents=1;points=[];fillColor=none;resizable=0;rotatable=0;perimeter=centerPerimeter;snapToPoint=1;align=left;" parent="Orui0hAEhWIHDiH9NPAQ-187" vertex="1">
          <mxGeometry x="0.5499999999999545" y="80" width="20" height="20" as="geometry" />
        </mxCell>
        <mxCell id="Orui0hAEhWIHDiH9NPAQ-194" value="    Backward" style="shape=waypoint;sketch=0;fillStyle=solid;size=6;pointerEvents=1;points=[];fillColor=none;resizable=0;rotatable=0;perimeter=centerPerimeter;snapToPoint=1;align=left;" parent="Orui0hAEhWIHDiH9NPAQ-187" vertex="1">
          <mxGeometry x="0.5499999999999545" y="100" width="20" height="20" as="geometry" />
        </mxCell>
        <mxCell id="Orui0hAEhWIHDiH9NPAQ-195" value="    VCC IN" style="shape=waypoint;sketch=0;fillStyle=solid;size=6;pointerEvents=1;points=[];fillColor=none;resizable=0;rotatable=0;perimeter=centerPerimeter;snapToPoint=1;align=left;" parent="Orui0hAEhWIHDiH9NPAQ-187" vertex="1">
          <mxGeometry x="0.5499999999999545" y="20" width="20" height="20" as="geometry" />
        </mxCell>
        <mxCell id="Orui0hAEhWIHDiH9NPAQ-196" value="    GND IN" style="shape=waypoint;sketch=0;fillStyle=solid;size=6;pointerEvents=1;points=[];fillColor=none;resizable=0;rotatable=0;perimeter=centerPerimeter;snapToPoint=1;align=left;" parent="Orui0hAEhWIHDiH9NPAQ-187" vertex="1">
          <mxGeometry x="0.5499999999999545" y="40" width="20" height="20" as="geometry" />
        </mxCell>
        <mxCell id="Orui0hAEhWIHDiH9NPAQ-198" value="" style="group" parent="1" vertex="1" connectable="0">
          <mxGeometry x="600" y="-950" width="100.55333333333328" height="120" as="geometry" />
        </mxCell>
        <mxCell id="Orui0hAEhWIHDiH9NPAQ-199" value="" style="rounded=0;whiteSpace=wrap;html=1;" parent="Orui0hAEhWIHDiH9NPAQ-198" vertex="1">
          <mxGeometry x="0.5499999999999545" width="100" height="120" as="geometry" />
        </mxCell>
        <mxCell id="Orui0hAEhWIHDiH9NPAQ-200" value="Motortreiber 2" style="text;html=1;align=center;verticalAlign=middle;whiteSpace=wrap;rounded=0;" parent="Orui0hAEhWIHDiH9NPAQ-198" vertex="1">
          <mxGeometry width="100.55" height="20" as="geometry" />
        </mxCell>
        <mxCell id="Orui0hAEhWIHDiH9NPAQ-201" value="+     " style="shape=waypoint;sketch=0;fillStyle=solid;size=6;pointerEvents=1;points=[];fillColor=none;resizable=0;rotatable=0;perimeter=centerPerimeter;snapToPoint=1;align=right;" parent="Orui0hAEhWIHDiH9NPAQ-198" vertex="1">
          <mxGeometry x="80.55333333333328" y="20" width="20" height="20" as="geometry" />
        </mxCell>
        <mxCell id="Orui0hAEhWIHDiH9NPAQ-202" value="-    " style="shape=waypoint;sketch=0;fillStyle=solid;size=6;pointerEvents=1;points=[];fillColor=none;resizable=0;rotatable=0;perimeter=centerPerimeter;snapToPoint=1;align=right;" parent="Orui0hAEhWIHDiH9NPAQ-198" vertex="1">
          <mxGeometry x="80.55333333333328" y="40" width="20" height="20" as="geometry" />
        </mxCell>
        <mxCell id="Orui0hAEhWIHDiH9NPAQ-203" value="    PWM" style="shape=waypoint;sketch=0;fillStyle=solid;size=6;pointerEvents=1;points=[];fillColor=none;resizable=0;rotatable=0;perimeter=centerPerimeter;snapToPoint=1;align=left;" parent="Orui0hAEhWIHDiH9NPAQ-198" vertex="1">
          <mxGeometry x="0.5499999999999545" y="60" width="20" height="20" as="geometry" />
        </mxCell>
        <mxCell id="Orui0hAEhWIHDiH9NPAQ-204" value="    Forward" style="shape=waypoint;sketch=0;fillStyle=solid;size=6;pointerEvents=1;points=[];fillColor=none;resizable=0;rotatable=0;perimeter=centerPerimeter;snapToPoint=1;align=left;" parent="Orui0hAEhWIHDiH9NPAQ-198" vertex="1">
          <mxGeometry x="0.5499999999999545" y="80" width="20" height="20" as="geometry" />
        </mxCell>
        <mxCell id="Orui0hAEhWIHDiH9NPAQ-205" value="    Backward" style="shape=waypoint;sketch=0;fillStyle=solid;size=6;pointerEvents=1;points=[];fillColor=none;resizable=0;rotatable=0;perimeter=centerPerimeter;snapToPoint=1;align=left;" parent="Orui0hAEhWIHDiH9NPAQ-198" vertex="1">
          <mxGeometry x="0.5499999999999545" y="100" width="20" height="20" as="geometry" />
        </mxCell>
        <mxCell id="Orui0hAEhWIHDiH9NPAQ-206" value="    VCC IN" style="shape=waypoint;sketch=0;fillStyle=solid;size=6;pointerEvents=1;points=[];fillColor=none;resizable=0;rotatable=0;perimeter=centerPerimeter;snapToPoint=1;align=left;" parent="Orui0hAEhWIHDiH9NPAQ-198" vertex="1">
          <mxGeometry x="0.5499999999999545" y="20" width="20" height="20" as="geometry" />
        </mxCell>
        <mxCell id="Orui0hAEhWIHDiH9NPAQ-207" value="    GND IN" style="shape=waypoint;sketch=0;fillStyle=solid;size=6;pointerEvents=1;points=[];fillColor=none;resizable=0;rotatable=0;perimeter=centerPerimeter;snapToPoint=1;align=left;" parent="Orui0hAEhWIHDiH9NPAQ-198" vertex="1">
          <mxGeometry x="0.5499999999999545" y="40" width="20" height="20" as="geometry" />
        </mxCell>
        <mxCell id="Orui0hAEhWIHDiH9NPAQ-208" value="" style="group" parent="1" vertex="1" connectable="0">
          <mxGeometry x="600" y="-1130" width="100.55333333333328" height="120" as="geometry" />
        </mxCell>
        <mxCell id="Orui0hAEhWIHDiH9NPAQ-209" value="" style="rounded=0;whiteSpace=wrap;html=1;" parent="Orui0hAEhWIHDiH9NPAQ-208" vertex="1">
          <mxGeometry x="0.5499999999999545" width="100" height="120" as="geometry" />
        </mxCell>
        <mxCell id="Orui0hAEhWIHDiH9NPAQ-210" value="Motortreiber 1" style="text;html=1;align=center;verticalAlign=middle;whiteSpace=wrap;rounded=0;" parent="Orui0hAEhWIHDiH9NPAQ-208" vertex="1">
          <mxGeometry width="100.55" height="20" as="geometry" />
        </mxCell>
        <mxCell id="Orui0hAEhWIHDiH9NPAQ-211" value="+    " style="shape=waypoint;sketch=0;fillStyle=solid;size=6;pointerEvents=1;points=[];fillColor=none;resizable=0;rotatable=0;perimeter=centerPerimeter;snapToPoint=1;align=right;" parent="Orui0hAEhWIHDiH9NPAQ-208" vertex="1">
          <mxGeometry x="80.55333333333328" y="20" width="20" height="20" as="geometry" />
        </mxCell>
        <mxCell id="Orui0hAEhWIHDiH9NPAQ-212" value="-    " style="shape=waypoint;sketch=0;fillStyle=solid;size=6;pointerEvents=1;points=[];fillColor=none;resizable=0;rotatable=0;perimeter=centerPerimeter;snapToPoint=1;align=right;" parent="Orui0hAEhWIHDiH9NPAQ-208" vertex="1">
          <mxGeometry x="80.55333333333328" y="40" width="20" height="20" as="geometry" />
        </mxCell>
        <mxCell id="Orui0hAEhWIHDiH9NPAQ-213" value="    PWM" style="shape=waypoint;sketch=0;fillStyle=solid;size=6;pointerEvents=1;points=[];fillColor=none;resizable=0;rotatable=0;perimeter=centerPerimeter;snapToPoint=1;align=left;" parent="Orui0hAEhWIHDiH9NPAQ-208" vertex="1">
          <mxGeometry x="0.5499999999999545" y="60" width="20" height="20" as="geometry" />
        </mxCell>
        <mxCell id="Orui0hAEhWIHDiH9NPAQ-214" value="    Forward" style="shape=waypoint;sketch=0;fillStyle=solid;size=6;pointerEvents=1;points=[];fillColor=none;resizable=0;rotatable=0;perimeter=centerPerimeter;snapToPoint=1;align=left;" parent="Orui0hAEhWIHDiH9NPAQ-208" vertex="1">
          <mxGeometry x="0.5499999999999545" y="80" width="20" height="20" as="geometry" />
        </mxCell>
        <mxCell id="Orui0hAEhWIHDiH9NPAQ-215" value="    Backward" style="shape=waypoint;sketch=0;fillStyle=solid;size=6;pointerEvents=1;points=[];fillColor=none;resizable=0;rotatable=0;perimeter=centerPerimeter;snapToPoint=1;align=left;" parent="Orui0hAEhWIHDiH9NPAQ-208" vertex="1">
          <mxGeometry x="0.5499999999999545" y="100" width="20" height="20" as="geometry" />
        </mxCell>
        <mxCell id="Orui0hAEhWIHDiH9NPAQ-216" value="    VCC IN" style="shape=waypoint;sketch=0;fillStyle=solid;size=6;pointerEvents=1;points=[];fillColor=none;resizable=0;rotatable=0;perimeter=centerPerimeter;snapToPoint=1;align=left;" parent="Orui0hAEhWIHDiH9NPAQ-208" vertex="1">
          <mxGeometry x="0.5499999999999545" y="20" width="20" height="20" as="geometry" />
        </mxCell>
        <mxCell id="Orui0hAEhWIHDiH9NPAQ-217" value="    GND IN" style="shape=waypoint;sketch=0;fillStyle=solid;size=6;pointerEvents=1;points=[];fillColor=none;resizable=0;rotatable=0;perimeter=centerPerimeter;snapToPoint=1;align=left;" parent="Orui0hAEhWIHDiH9NPAQ-208" vertex="1">
          <mxGeometry x="0.5499999999999545" y="40" width="20" height="20" as="geometry" />
        </mxCell>
        <mxCell id="Orui0hAEhWIHDiH9NPAQ-227" value="" style="group" parent="1" vertex="1" connectable="0">
          <mxGeometry x="430" y="-1130" width="150" height="60" as="geometry" />
        </mxCell>
        <mxCell id="Orui0hAEhWIHDiH9NPAQ-226" value="" style="rounded=0;whiteSpace=wrap;html=1;" parent="Orui0hAEhWIHDiH9NPAQ-227" vertex="1">
          <mxGeometry width="150" height="60" as="geometry" />
        </mxCell>
        <mxCell id="Orui0hAEhWIHDiH9NPAQ-221" value="Stepdown Converter 1" style="text;html=1;align=center;verticalAlign=middle;whiteSpace=wrap;rounded=0;" parent="Orui0hAEhWIHDiH9NPAQ-227" vertex="1">
          <mxGeometry width="150" height="20" as="geometry" />
        </mxCell>
        <mxCell id="Orui0hAEhWIHDiH9NPAQ-222" value="    VCC IN" style="shape=waypoint;sketch=0;fillStyle=solid;size=6;pointerEvents=1;points=[];fillColor=none;resizable=0;rotatable=0;perimeter=centerPerimeter;snapToPoint=1;align=left;" parent="Orui0hAEhWIHDiH9NPAQ-227" vertex="1">
          <mxGeometry y="20" width="20" height="20" as="geometry" />
        </mxCell>
        <mxCell id="LZgNYY5IlDtzuVHjER0S-32" style="edgeStyle=orthogonalEdgeStyle;rounded=0;orthogonalLoop=1;jettySize=auto;html=1;endArrow=none;startFill=0;" edge="1" parent="Orui0hAEhWIHDiH9NPAQ-227" source="Orui0hAEhWIHDiH9NPAQ-223">
          <mxGeometry relative="1" as="geometry">
            <mxPoint x="-20" y="50" as="targetPoint" />
          </mxGeometry>
        </mxCell>
        <mxCell id="Orui0hAEhWIHDiH9NPAQ-223" value="    GND IN" style="shape=waypoint;sketch=0;fillStyle=solid;size=6;pointerEvents=1;points=[];fillColor=none;resizable=0;rotatable=0;perimeter=centerPerimeter;snapToPoint=1;align=left;" parent="Orui0hAEhWIHDiH9NPAQ-227" vertex="1">
          <mxGeometry y="40" width="20" height="20" as="geometry" />
        </mxCell>
        <mxCell id="Orui0hAEhWIHDiH9NPAQ-224" value="VCC OUT    " style="shape=waypoint;sketch=0;fillStyle=solid;size=6;pointerEvents=1;points=[];fillColor=none;resizable=0;rotatable=0;perimeter=centerPerimeter;snapToPoint=1;align=right;" parent="Orui0hAEhWIHDiH9NPAQ-227" vertex="1">
          <mxGeometry x="130" y="20" width="20" height="20" as="geometry" />
        </mxCell>
        <mxCell id="Orui0hAEhWIHDiH9NPAQ-225" value="GND OUT    " style="shape=waypoint;sketch=0;fillStyle=solid;size=6;pointerEvents=1;points=[];fillColor=none;resizable=0;rotatable=0;perimeter=centerPerimeter;snapToPoint=1;align=right;" parent="Orui0hAEhWIHDiH9NPAQ-227" vertex="1">
          <mxGeometry x="130" y="40" width="20" height="20" as="geometry" />
        </mxCell>
        <mxCell id="Orui0hAEhWIHDiH9NPAQ-235" value="" style="group" parent="1" vertex="1" connectable="0">
          <mxGeometry x="430" y="-950" width="150" height="60" as="geometry" />
        </mxCell>
        <mxCell id="Orui0hAEhWIHDiH9NPAQ-236" value="" style="rounded=0;whiteSpace=wrap;html=1;" parent="Orui0hAEhWIHDiH9NPAQ-235" vertex="1">
          <mxGeometry width="150" height="60" as="geometry" />
        </mxCell>
        <mxCell id="Orui0hAEhWIHDiH9NPAQ-237" value="Stepdown Converter 2" style="text;html=1;align=center;verticalAlign=middle;whiteSpace=wrap;rounded=0;" parent="Orui0hAEhWIHDiH9NPAQ-235" vertex="1">
          <mxGeometry width="150" height="20" as="geometry" />
        </mxCell>
        <mxCell id="Orui0hAEhWIHDiH9NPAQ-238" value="    VCC IN" style="shape=waypoint;sketch=0;fillStyle=solid;size=6;pointerEvents=1;points=[];fillColor=none;resizable=0;rotatable=0;perimeter=centerPerimeter;snapToPoint=1;align=left;" parent="Orui0hAEhWIHDiH9NPAQ-235" vertex="1">
          <mxGeometry y="20" width="20" height="20" as="geometry" />
        </mxCell>
        <mxCell id="LZgNYY5IlDtzuVHjER0S-33" style="edgeStyle=orthogonalEdgeStyle;rounded=0;orthogonalLoop=1;jettySize=auto;html=1;endArrow=oval;endFill=1;" edge="1" parent="Orui0hAEhWIHDiH9NPAQ-235" source="Orui0hAEhWIHDiH9NPAQ-239">
          <mxGeometry relative="1" as="geometry">
            <mxPoint x="-20" y="50" as="targetPoint" />
          </mxGeometry>
        </mxCell>
        <mxCell id="Orui0hAEhWIHDiH9NPAQ-239" value="    GND IN" style="shape=waypoint;sketch=0;fillStyle=solid;size=6;pointerEvents=1;points=[];fillColor=none;resizable=0;rotatable=0;perimeter=centerPerimeter;snapToPoint=1;align=left;" parent="Orui0hAEhWIHDiH9NPAQ-235" vertex="1">
          <mxGeometry y="40" width="20" height="20" as="geometry" />
        </mxCell>
        <mxCell id="Orui0hAEhWIHDiH9NPAQ-240" value="VCC OUT    " style="shape=waypoint;sketch=0;fillStyle=solid;size=6;pointerEvents=1;points=[];fillColor=none;resizable=0;rotatable=0;perimeter=centerPerimeter;snapToPoint=1;align=right;" parent="Orui0hAEhWIHDiH9NPAQ-235" vertex="1">
          <mxGeometry x="130" y="20" width="20" height="20" as="geometry" />
        </mxCell>
        <mxCell id="Orui0hAEhWIHDiH9NPAQ-241" value="GND OUT    " style="shape=waypoint;sketch=0;fillStyle=solid;size=6;pointerEvents=1;points=[];fillColor=none;resizable=0;rotatable=0;perimeter=centerPerimeter;snapToPoint=1;align=right;" parent="Orui0hAEhWIHDiH9NPAQ-235" vertex="1">
          <mxGeometry x="130" y="40" width="20" height="20" as="geometry" />
        </mxCell>
        <mxCell id="Orui0hAEhWIHDiH9NPAQ-242" value="" style="group" parent="1" vertex="1" connectable="0">
          <mxGeometry x="430" y="-770" width="150" height="60" as="geometry" />
        </mxCell>
        <mxCell id="Orui0hAEhWIHDiH9NPAQ-243" value="" style="rounded=0;whiteSpace=wrap;html=1;" parent="Orui0hAEhWIHDiH9NPAQ-242" vertex="1">
          <mxGeometry width="150" height="60" as="geometry" />
        </mxCell>
        <mxCell id="Orui0hAEhWIHDiH9NPAQ-244" value="Stepdown Converter 3" style="text;html=1;align=center;verticalAlign=middle;whiteSpace=wrap;rounded=0;" parent="Orui0hAEhWIHDiH9NPAQ-242" vertex="1">
          <mxGeometry width="150" height="20" as="geometry" />
        </mxCell>
        <mxCell id="LZgNYY5IlDtzuVHjER0S-24" style="edgeStyle=orthogonalEdgeStyle;rounded=0;orthogonalLoop=1;jettySize=auto;html=1;endArrow=none;startFill=0;" edge="1" parent="Orui0hAEhWIHDiH9NPAQ-242" source="Orui0hAEhWIHDiH9NPAQ-245">
          <mxGeometry relative="1" as="geometry">
            <mxPoint x="-10" y="30" as="targetPoint" />
          </mxGeometry>
        </mxCell>
        <mxCell id="Orui0hAEhWIHDiH9NPAQ-245" value="    VCC IN" style="shape=waypoint;sketch=0;fillStyle=solid;size=6;pointerEvents=1;points=[];fillColor=none;resizable=0;rotatable=0;perimeter=centerPerimeter;snapToPoint=1;align=left;" parent="Orui0hAEhWIHDiH9NPAQ-242" vertex="1">
          <mxGeometry y="20" width="20" height="20" as="geometry" />
        </mxCell>
        <mxCell id="LZgNYY5IlDtzuVHjER0S-34" style="edgeStyle=orthogonalEdgeStyle;rounded=0;orthogonalLoop=1;jettySize=auto;html=1;endArrow=none;startFill=0;" edge="1" parent="Orui0hAEhWIHDiH9NPAQ-242" source="Orui0hAEhWIHDiH9NPAQ-246">
          <mxGeometry relative="1" as="geometry">
            <mxPoint x="-20" y="-310" as="targetPoint" />
          </mxGeometry>
        </mxCell>
        <mxCell id="Orui0hAEhWIHDiH9NPAQ-246" value="    GND IN" style="shape=waypoint;sketch=0;fillStyle=solid;size=6;pointerEvents=1;points=[];fillColor=none;resizable=0;rotatable=0;perimeter=centerPerimeter;snapToPoint=1;align=left;" parent="Orui0hAEhWIHDiH9NPAQ-242" vertex="1">
          <mxGeometry y="40" width="20" height="20" as="geometry" />
        </mxCell>
        <mxCell id="Orui0hAEhWIHDiH9NPAQ-247" value="VCC OUT    " style="shape=waypoint;sketch=0;fillStyle=solid;size=6;pointerEvents=1;points=[];fillColor=none;resizable=0;rotatable=0;perimeter=centerPerimeter;snapToPoint=1;align=right;" parent="Orui0hAEhWIHDiH9NPAQ-242" vertex="1">
          <mxGeometry x="130" y="20" width="20" height="20" as="geometry" />
        </mxCell>
        <mxCell id="Orui0hAEhWIHDiH9NPAQ-248" value="GND OUT    " style="shape=waypoint;sketch=0;fillStyle=solid;size=6;pointerEvents=1;points=[];fillColor=none;resizable=0;rotatable=0;perimeter=centerPerimeter;snapToPoint=1;align=right;" parent="Orui0hAEhWIHDiH9NPAQ-242" vertex="1">
          <mxGeometry x="130" y="40" width="20" height="20" as="geometry" />
        </mxCell>
        <mxCell id="Orui0hAEhWIHDiH9NPAQ-249" style="edgeStyle=orthogonalEdgeStyle;rounded=0;orthogonalLoop=1;jettySize=auto;html=1;endArrow=none;startFill=0;" parent="1" source="Orui0hAEhWIHDiH9NPAQ-224" target="Orui0hAEhWIHDiH9NPAQ-216" edge="1">
          <mxGeometry relative="1" as="geometry" />
        </mxCell>
        <mxCell id="Orui0hAEhWIHDiH9NPAQ-250" style="edgeStyle=orthogonalEdgeStyle;rounded=0;orthogonalLoop=1;jettySize=auto;html=1;endArrow=none;startFill=0;" parent="1" source="Orui0hAEhWIHDiH9NPAQ-225" target="Orui0hAEhWIHDiH9NPAQ-217" edge="1">
          <mxGeometry relative="1" as="geometry" />
        </mxCell>
        <mxCell id="Orui0hAEhWIHDiH9NPAQ-251" style="edgeStyle=orthogonalEdgeStyle;rounded=0;orthogonalLoop=1;jettySize=auto;html=1;endArrow=none;startFill=0;" parent="1" source="Orui0hAEhWIHDiH9NPAQ-240" target="Orui0hAEhWIHDiH9NPAQ-206" edge="1">
          <mxGeometry relative="1" as="geometry" />
        </mxCell>
        <mxCell id="Orui0hAEhWIHDiH9NPAQ-252" style="edgeStyle=orthogonalEdgeStyle;rounded=0;orthogonalLoop=1;jettySize=auto;html=1;endArrow=none;startFill=0;" parent="1" source="Orui0hAEhWIHDiH9NPAQ-241" target="Orui0hAEhWIHDiH9NPAQ-207" edge="1">
          <mxGeometry relative="1" as="geometry" />
        </mxCell>
        <mxCell id="Orui0hAEhWIHDiH9NPAQ-253" style="edgeStyle=orthogonalEdgeStyle;rounded=0;orthogonalLoop=1;jettySize=auto;html=1;endArrow=none;startFill=0;" parent="1" source="Orui0hAEhWIHDiH9NPAQ-247" target="Orui0hAEhWIHDiH9NPAQ-195" edge="1">
          <mxGeometry relative="1" as="geometry" />
        </mxCell>
        <mxCell id="Orui0hAEhWIHDiH9NPAQ-254" style="edgeStyle=orthogonalEdgeStyle;rounded=0;orthogonalLoop=1;jettySize=auto;html=1;endArrow=none;startFill=0;" parent="1" source="Orui0hAEhWIHDiH9NPAQ-248" target="Orui0hAEhWIHDiH9NPAQ-196" edge="1">
          <mxGeometry relative="1" as="geometry" />
        </mxCell>
        <mxCell id="Orui0hAEhWIHDiH9NPAQ-256" style="edgeStyle=orthogonalEdgeStyle;rounded=0;orthogonalLoop=1;jettySize=auto;html=1;endArrow=none;startFill=0;" parent="1" source="Orui0hAEhWIHDiH9NPAQ-211" target="Orui0hAEhWIHDiH9NPAQ-82" edge="1">
          <mxGeometry relative="1" as="geometry" />
        </mxCell>
        <mxCell id="Orui0hAEhWIHDiH9NPAQ-257" style="edgeStyle=orthogonalEdgeStyle;rounded=0;orthogonalLoop=1;jettySize=auto;html=1;endArrow=none;startFill=0;" parent="1" source="Orui0hAEhWIHDiH9NPAQ-212" target="Orui0hAEhWIHDiH9NPAQ-83" edge="1">
          <mxGeometry relative="1" as="geometry">
            <Array as="points">
              <mxPoint x="710" y="-1080" />
              <mxPoint x="710" y="-1060" />
            </Array>
          </mxGeometry>
        </mxCell>
        <mxCell id="Orui0hAEhWIHDiH9NPAQ-262" style="edgeStyle=orthogonalEdgeStyle;rounded=0;orthogonalLoop=1;jettySize=auto;html=1;entryX=0.357;entryY=0.447;entryDx=0;entryDy=0;entryPerimeter=0;endArrow=none;startFill=0;" parent="1" source="Orui0hAEhWIHDiH9NPAQ-201" target="Orui0hAEhWIHDiH9NPAQ-95" edge="1">
          <mxGeometry relative="1" as="geometry" />
        </mxCell>
        <mxCell id="Orui0hAEhWIHDiH9NPAQ-263" style="edgeStyle=orthogonalEdgeStyle;rounded=0;orthogonalLoop=1;jettySize=auto;html=1;endArrow=none;startFill=0;" parent="1" source="Orui0hAEhWIHDiH9NPAQ-202" target="Orui0hAEhWIHDiH9NPAQ-96" edge="1">
          <mxGeometry relative="1" as="geometry">
            <Array as="points">
              <mxPoint x="710" y="-900" />
              <mxPoint x="710" y="-880" />
            </Array>
          </mxGeometry>
        </mxCell>
        <mxCell id="Orui0hAEhWIHDiH9NPAQ-264" style="edgeStyle=orthogonalEdgeStyle;rounded=0;orthogonalLoop=1;jettySize=auto;html=1;entryX=0.378;entryY=0.615;entryDx=0;entryDy=0;entryPerimeter=0;endArrow=none;startFill=0;" parent="1" source="Orui0hAEhWIHDiH9NPAQ-190" target="Orui0hAEhWIHDiH9NPAQ-117" edge="1">
          <mxGeometry relative="1" as="geometry" />
        </mxCell>
        <mxCell id="Orui0hAEhWIHDiH9NPAQ-265" style="edgeStyle=orthogonalEdgeStyle;rounded=0;orthogonalLoop=1;jettySize=auto;html=1;entryX=0.184;entryY=0.48;entryDx=0;entryDy=0;entryPerimeter=0;endArrow=none;startFill=0;" parent="1" source="Orui0hAEhWIHDiH9NPAQ-191" target="Orui0hAEhWIHDiH9NPAQ-118" edge="1">
          <mxGeometry relative="1" as="geometry">
            <Array as="points">
              <mxPoint x="710" y="-720" />
              <mxPoint x="710" y="-700" />
            </Array>
          </mxGeometry>
        </mxCell>
        <mxCell id="Orui0hAEhWIHDiH9NPAQ-276" value="" style="group" parent="1" vertex="1" connectable="0">
          <mxGeometry x="120" y="-1070" width="70" height="60" as="geometry" />
        </mxCell>
        <mxCell id="Orui0hAEhWIHDiH9NPAQ-273" value="" style="rounded=0;whiteSpace=wrap;html=1;" parent="Orui0hAEhWIHDiH9NPAQ-276" vertex="1">
          <mxGeometry width="70" height="60" as="geometry" />
        </mxCell>
        <mxCell id="Orui0hAEhWIHDiH9NPAQ-272" value="Powerbank" style="text;html=1;align=center;verticalAlign=middle;whiteSpace=wrap;rounded=0;" parent="Orui0hAEhWIHDiH9NPAQ-276" vertex="1">
          <mxGeometry width="70" height="20" as="geometry" />
        </mxCell>
        <mxCell id="Orui0hAEhWIHDiH9NPAQ-274" value="VCC    " style="shape=waypoint;sketch=0;fillStyle=solid;size=6;pointerEvents=1;points=[];fillColor=none;resizable=0;rotatable=0;perimeter=centerPerimeter;snapToPoint=1;align=right;" parent="Orui0hAEhWIHDiH9NPAQ-276" vertex="1">
          <mxGeometry x="50" y="20" width="20" height="20" as="geometry" />
        </mxCell>
        <mxCell id="Orui0hAEhWIHDiH9NPAQ-275" value="GND    " style="shape=waypoint;sketch=0;fillStyle=solid;size=6;pointerEvents=1;points=[];fillColor=none;resizable=0;rotatable=0;perimeter=centerPerimeter;snapToPoint=1;align=right;" parent="Orui0hAEhWIHDiH9NPAQ-276" vertex="1">
          <mxGeometry x="50" y="40" width="20" height="20" as="geometry" />
        </mxCell>
        <mxCell id="Orui0hAEhWIHDiH9NPAQ-267" value="" style="rounded=0;whiteSpace=wrap;html=1;" parent="1" vertex="1">
          <mxGeometry x="210" y="-1070" width="140" height="580" as="geometry" />
        </mxCell>
        <mxCell id="Orui0hAEhWIHDiH9NPAQ-268" value="Rasberry Pi 5" style="text;html=1;align=center;verticalAlign=middle;whiteSpace=wrap;rounded=0;" parent="1" vertex="1">
          <mxGeometry x="227" y="-1070" width="123" height="20" as="geometry" />
        </mxCell>
        <mxCell id="Orui0hAEhWIHDiH9NPAQ-269" value="    VCC IN" style="shape=waypoint;sketch=0;fillStyle=solid;size=6;pointerEvents=1;points=[];fillColor=none;resizable=0;rotatable=0;perimeter=centerPerimeter;snapToPoint=1;align=left;" parent="1" vertex="1">
          <mxGeometry x="210" y="-1050" width="20" height="20" as="geometry" />
        </mxCell>
        <mxCell id="Orui0hAEhWIHDiH9NPAQ-270" value="    GND IN" style="shape=waypoint;sketch=0;fillStyle=solid;size=6;pointerEvents=1;points=[];fillColor=none;resizable=0;rotatable=0;perimeter=centerPerimeter;snapToPoint=1;align=left;" parent="1" vertex="1">
          <mxGeometry x="210" y="-1030" width="20" height="20" as="geometry" />
        </mxCell>
        <mxCell id="Orui0hAEhWIHDiH9NPAQ-286" value="3,3V (01)    " style="shape=waypoint;sketch=0;fillStyle=solid;size=6;pointerEvents=1;points=[];fillColor=none;resizable=0;rotatable=0;perimeter=centerPerimeter;snapToPoint=1;align=right;" parent="1" vertex="1">
          <mxGeometry x="330" y="-1050" width="20" height="20" as="geometry" />
        </mxCell>
        <mxCell id="Orui0hAEhWIHDiH9NPAQ-287" value="GND (06)    " style="shape=waypoint;sketch=0;fillStyle=solid;size=6;pointerEvents=1;points=[];fillColor=none;resizable=0;rotatable=0;perimeter=centerPerimeter;snapToPoint=1;align=right;" parent="1" vertex="1">
          <mxGeometry x="330" y="-1030" width="20" height="20" as="geometry" />
        </mxCell>
        <mxCell id="Orui0hAEhWIHDiH9NPAQ-478" style="edgeStyle=orthogonalEdgeStyle;rounded=0;orthogonalLoop=1;jettySize=auto;html=1;endArrow=none;startFill=0;" parent="1" source="Orui0hAEhWIHDiH9NPAQ-288" target="Orui0hAEhWIHDiH9NPAQ-213" edge="1">
          <mxGeometry relative="1" as="geometry">
            <Array as="points">
              <mxPoint x="360" y="-1000" />
              <mxPoint x="360" y="-1060" />
            </Array>
          </mxGeometry>
        </mxCell>
        <mxCell id="Orui0hAEhWIHDiH9NPAQ-288" value="GPIO 4 (07)    " style="shape=waypoint;sketch=0;fillStyle=solid;size=6;pointerEvents=1;points=[];fillColor=none;resizable=0;rotatable=0;perimeter=centerPerimeter;snapToPoint=1;align=right;" parent="1" vertex="1">
          <mxGeometry x="330" y="-1010" width="20" height="20" as="geometry" />
        </mxCell>
        <mxCell id="Orui0hAEhWIHDiH9NPAQ-289" value="GPIO 14 (08)    " style="shape=waypoint;sketch=0;fillStyle=solid;size=6;pointerEvents=1;points=[];fillColor=none;resizable=0;rotatable=0;perimeter=centerPerimeter;snapToPoint=1;align=right;" parent="1" vertex="1">
          <mxGeometry x="330" y="-990" width="20" height="20" as="geometry" />
        </mxCell>
        <mxCell id="Orui0hAEhWIHDiH9NPAQ-475" style="edgeStyle=orthogonalEdgeStyle;rounded=0;orthogonalLoop=1;jettySize=auto;html=1;endArrow=none;startFill=0;" parent="1" source="Orui0hAEhWIHDiH9NPAQ-290" target="Orui0hAEhWIHDiH9NPAQ-476" edge="1">
          <mxGeometry relative="1" as="geometry">
            <mxPoint x="590" y="-1080" as="targetPoint" />
            <mxPoint x="360" y="-960" as="sourcePoint" />
            <Array as="points">
              <mxPoint x="360" y="-960" />
              <mxPoint x="360" y="-970" />
              <mxPoint x="591" y="-970" />
              <mxPoint x="591" y="-1080" />
            </Array>
          </mxGeometry>
        </mxCell>
        <mxCell id="Orui0hAEhWIHDiH9NPAQ-290" value="Ground (09)    " style="shape=waypoint;sketch=0;fillStyle=solid;size=6;pointerEvents=1;points=[];fillColor=none;resizable=0;rotatable=0;perimeter=centerPerimeter;snapToPoint=1;align=right;" parent="1" vertex="1">
          <mxGeometry x="330" y="-970" width="20" height="20" as="geometry" />
        </mxCell>
        <mxCell id="Orui0hAEhWIHDiH9NPAQ-291" value="GPIO 15 (10)    " style="shape=waypoint;sketch=0;fillStyle=solid;size=6;pointerEvents=1;points=[];fillColor=none;resizable=0;rotatable=0;perimeter=centerPerimeter;snapToPoint=1;align=right;" parent="1" vertex="1">
          <mxGeometry x="330" y="-950" width="20" height="20" as="geometry" />
        </mxCell>
        <mxCell id="Orui0hAEhWIHDiH9NPAQ-292" value="GPIO 27 (13)    " style="shape=waypoint;sketch=0;fillStyle=solid;size=6;pointerEvents=1;points=[];fillColor=none;resizable=0;rotatable=0;perimeter=centerPerimeter;snapToPoint=1;align=right;" parent="1" vertex="1">
          <mxGeometry x="330" y="-930" width="20" height="20" as="geometry" />
        </mxCell>
        <mxCell id="Orui0hAEhWIHDiH9NPAQ-472" style="edgeStyle=orthogonalEdgeStyle;rounded=0;orthogonalLoop=1;jettySize=auto;html=1;endArrow=none;startFill=0;" parent="1" source="Orui0hAEhWIHDiH9NPAQ-293" target="Orui0hAEhWIHDiH9NPAQ-215" edge="1">
          <mxGeometry relative="1" as="geometry">
            <Array as="points">
              <mxPoint x="390" y="-900" />
              <mxPoint x="390" y="-1020" />
            </Array>
          </mxGeometry>
        </mxCell>
        <mxCell id="Orui0hAEhWIHDiH9NPAQ-293" value="GPIO 22 (15)    " style="shape=waypoint;sketch=0;fillStyle=solid;size=6;pointerEvents=1;points=[];fillColor=none;resizable=0;rotatable=0;perimeter=centerPerimeter;snapToPoint=1;align=right;" parent="1" vertex="1">
          <mxGeometry x="330" y="-910" width="20" height="20" as="geometry" />
        </mxCell>
        <mxCell id="Orui0hAEhWIHDiH9NPAQ-469" style="edgeStyle=orthogonalEdgeStyle;rounded=0;orthogonalLoop=1;jettySize=auto;html=1;endArrow=none;startFill=0;" parent="1" source="Orui0hAEhWIHDiH9NPAQ-294" target="Orui0hAEhWIHDiH9NPAQ-99" edge="1">
          <mxGeometry relative="1" as="geometry">
            <Array as="points">
              <mxPoint x="380" y="-880" />
              <mxPoint x="380" y="-870" />
              <mxPoint x="440" y="-870" />
              <mxPoint x="440" y="-820" />
              <mxPoint x="710" y="-820" />
              <mxPoint x="710" y="-840" />
            </Array>
          </mxGeometry>
        </mxCell>
        <mxCell id="Orui0hAEhWIHDiH9NPAQ-294" value="3,3V (17)    " style="shape=waypoint;sketch=0;fillStyle=solid;size=6;pointerEvents=1;points=[];fillColor=none;resizable=0;rotatable=0;perimeter=centerPerimeter;snapToPoint=1;align=right;" parent="1" vertex="1">
          <mxGeometry x="330" y="-890" width="20" height="20" as="geometry" />
        </mxCell>
        <mxCell id="Orui0hAEhWIHDiH9NPAQ-295" value="GND (20)    " style="shape=waypoint;sketch=0;fillStyle=solid;size=6;pointerEvents=1;points=[];fillColor=none;resizable=0;rotatable=0;perimeter=centerPerimeter;snapToPoint=1;align=right;" parent="1" vertex="1">
          <mxGeometry x="330" y="-870" width="20" height="20" as="geometry" />
        </mxCell>
        <mxCell id="Orui0hAEhWIHDiH9NPAQ-296" value="GPIO 9 (21)    " style="shape=waypoint;sketch=0;fillStyle=solid;size=6;pointerEvents=1;points=[];fillColor=none;resizable=0;rotatable=0;perimeter=centerPerimeter;snapToPoint=1;align=right;" parent="1" vertex="1">
          <mxGeometry x="330" y="-850" width="20" height="20" as="geometry" />
        </mxCell>
        <mxCell id="Orui0hAEhWIHDiH9NPAQ-466" style="edgeStyle=orthogonalEdgeStyle;rounded=0;orthogonalLoop=1;jettySize=auto;html=1;endArrow=none;startFill=0;" parent="1" source="Orui0hAEhWIHDiH9NPAQ-297" target="Orui0hAEhWIHDiH9NPAQ-205" edge="1">
          <mxGeometry relative="1" as="geometry">
            <Array as="points">
              <mxPoint x="366" y="-820" />
              <mxPoint x="366" y="-840" />
            </Array>
          </mxGeometry>
        </mxCell>
        <mxCell id="Orui0hAEhWIHDiH9NPAQ-297" value="GPIO 25 (22)    " style="shape=waypoint;sketch=0;fillStyle=solid;size=6;pointerEvents=1;points=[];fillColor=none;resizable=0;rotatable=0;perimeter=centerPerimeter;snapToPoint=1;align=right;" parent="1" vertex="1">
          <mxGeometry x="330" y="-830" width="20" height="20" as="geometry" />
        </mxCell>
        <mxCell id="Orui0hAEhWIHDiH9NPAQ-298" value="GLIP 11 (23)    " style="shape=waypoint;sketch=0;fillStyle=solid;size=6;pointerEvents=1;points=[];fillColor=none;resizable=0;rotatable=0;perimeter=centerPerimeter;snapToPoint=1;align=right;" parent="1" vertex="1">
          <mxGeometry x="330" y="-810" width="20" height="20" as="geometry" />
        </mxCell>
        <mxCell id="Orui0hAEhWIHDiH9NPAQ-299" value="GPIO 8 (24)    " style="shape=waypoint;sketch=0;fillStyle=solid;size=6;pointerEvents=1;points=[];fillColor=none;resizable=0;rotatable=0;perimeter=centerPerimeter;snapToPoint=1;align=right;" parent="1" vertex="1">
          <mxGeometry x="330" y="-790" width="20" height="20" as="geometry" />
        </mxCell>
        <mxCell id="Orui0hAEhWIHDiH9NPAQ-300" value="GND (25)    " style="shape=waypoint;sketch=0;fillStyle=solid;size=6;pointerEvents=1;points=[];fillColor=none;resizable=0;rotatable=0;perimeter=centerPerimeter;snapToPoint=1;align=right;" parent="1" vertex="1">
          <mxGeometry x="330" y="-770" width="20" height="20" as="geometry" />
        </mxCell>
        <mxCell id="Orui0hAEhWIHDiH9NPAQ-462" style="edgeStyle=orthogonalEdgeStyle;rounded=0;orthogonalLoop=1;jettySize=auto;html=1;endArrow=none;startFill=0;" parent="1" source="Orui0hAEhWIHDiH9NPAQ-301" target="Orui0hAEhWIHDiH9NPAQ-203" edge="1">
          <mxGeometry relative="1" as="geometry">
            <Array as="points">
              <mxPoint x="390" y="-740" />
              <mxPoint x="390" y="-880" />
            </Array>
          </mxGeometry>
        </mxCell>
        <mxCell id="Orui0hAEhWIHDiH9NPAQ-301" value="GPIO 7 (26)    " style="shape=waypoint;sketch=0;fillStyle=solid;size=6;pointerEvents=1;points=[];fillColor=none;resizable=0;rotatable=0;perimeter=centerPerimeter;snapToPoint=1;align=right;" parent="1" vertex="1">
          <mxGeometry x="330" y="-750" width="20" height="20" as="geometry" />
        </mxCell>
        <mxCell id="Orui0hAEhWIHDiH9NPAQ-302" value="GOIO 13 (33)    " style="shape=waypoint;sketch=0;fillStyle=solid;size=6;pointerEvents=1;points=[];fillColor=none;resizable=0;rotatable=0;perimeter=centerPerimeter;snapToPoint=1;align=right;" parent="1" vertex="1">
          <mxGeometry x="330" y="-730" width="20" height="20" as="geometry" />
        </mxCell>
        <mxCell id="Orui0hAEhWIHDiH9NPAQ-303" value="GND (34)    " style="shape=waypoint;sketch=0;fillStyle=solid;size=6;pointerEvents=1;points=[];fillColor=none;resizable=0;rotatable=0;perimeter=centerPerimeter;snapToPoint=1;align=right;" parent="1" vertex="1">
          <mxGeometry x="330" y="-710" width="20" height="20" as="geometry" />
        </mxCell>
        <mxCell id="Orui0hAEhWIHDiH9NPAQ-454" style="edgeStyle=orthogonalEdgeStyle;rounded=0;orthogonalLoop=1;jettySize=auto;html=1;endArrow=none;startFill=0;" parent="1" source="Orui0hAEhWIHDiH9NPAQ-304" target="Orui0hAEhWIHDiH9NPAQ-193" edge="1">
          <mxGeometry relative="1" as="geometry" />
        </mxCell>
        <mxCell id="Orui0hAEhWIHDiH9NPAQ-304" value="GPIO 19 (35)    " style="shape=waypoint;sketch=0;fillStyle=solid;size=6;pointerEvents=1;points=[];fillColor=none;resizable=0;rotatable=0;perimeter=centerPerimeter;snapToPoint=1;align=right;" parent="1" vertex="1">
          <mxGeometry x="330" y="-690" width="20" height="20" as="geometry" />
        </mxCell>
        <mxCell id="Orui0hAEhWIHDiH9NPAQ-305" value="GPIO 26 (37)    " style="shape=waypoint;sketch=0;fillStyle=solid;size=6;pointerEvents=1;points=[];fillColor=none;resizable=0;rotatable=0;perimeter=centerPerimeter;snapToPoint=1;align=right;" parent="1" vertex="1">
          <mxGeometry x="330" y="-670" width="20" height="20" as="geometry" />
        </mxCell>
        <mxCell id="Orui0hAEhWIHDiH9NPAQ-451" style="edgeStyle=orthogonalEdgeStyle;rounded=0;orthogonalLoop=1;jettySize=auto;html=1;endArrow=none;startFill=0;" parent="1" source="Orui0hAEhWIHDiH9NPAQ-306" target="Orui0hAEhWIHDiH9NPAQ-124" edge="1">
          <mxGeometry relative="1" as="geometry">
            <Array as="points">
              <mxPoint x="390" y="-640" />
              <mxPoint x="390" y="-600" />
            </Array>
          </mxGeometry>
        </mxCell>
        <mxCell id="Orui0hAEhWIHDiH9NPAQ-306" value="GPIO 20 (38)    " style="shape=waypoint;sketch=0;fillStyle=solid;size=6;pointerEvents=1;points=[];fillColor=none;resizable=0;rotatable=0;perimeter=centerPerimeter;snapToPoint=1;align=right;" parent="1" vertex="1">
          <mxGeometry x="330" y="-650" width="20" height="20" as="geometry" />
        </mxCell>
        <mxCell id="Orui0hAEhWIHDiH9NPAQ-307" value="GND (39)    " style="shape=waypoint;sketch=0;fillStyle=solid;size=6;pointerEvents=1;points=[];fillColor=none;resizable=0;rotatable=0;perimeter=centerPerimeter;snapToPoint=1;align=right;" parent="1" vertex="1">
          <mxGeometry x="330" y="-630" width="20" height="20" as="geometry" />
        </mxCell>
        <mxCell id="Orui0hAEhWIHDiH9NPAQ-308" value="GPIO 21 (40)    " style="shape=waypoint;sketch=0;fillStyle=solid;size=6;pointerEvents=1;points=[];fillColor=none;resizable=0;rotatable=0;perimeter=centerPerimeter;snapToPoint=1;align=right;" parent="1" vertex="1">
          <mxGeometry x="330" y="-610" width="20" height="20" as="geometry" />
        </mxCell>
        <mxCell id="Orui0hAEhWIHDiH9NPAQ-347" value="" style="rounded=0;whiteSpace=wrap;html=1;" parent="1" vertex="1">
          <mxGeometry x="210" y="-590" width="140" height="100" as="geometry" />
        </mxCell>
        <mxCell id="Orui0hAEhWIHDiH9NPAQ-350" value="ttyUSB0" style="text;html=1;align=center;verticalAlign=middle;whiteSpace=wrap;rounded=0;" parent="1" vertex="1">
          <mxGeometry x="210" y="-590" width="140" height="20" as="geometry" />
        </mxCell>
        <mxCell id="Orui0hAEhWIHDiH9NPAQ-370" value="" style="group" parent="1" vertex="1" connectable="0">
          <mxGeometry x="590" y="-590" width="100" height="200" as="geometry" />
        </mxCell>
        <mxCell id="Orui0hAEhWIHDiH9NPAQ-371" value="" style="rounded=0;whiteSpace=wrap;html=1;" parent="Orui0hAEhWIHDiH9NPAQ-370" vertex="1">
          <mxGeometry width="100" height="200" as="geometry" />
        </mxCell>
        <mxCell id="Orui0hAEhWIHDiH9NPAQ-372" value="RPLIDAR A1M8" style="text;html=1;align=center;verticalAlign=middle;whiteSpace=wrap;rounded=0;" parent="Orui0hAEhWIHDiH9NPAQ-370" vertex="1">
          <mxGeometry width="100" height="20" as="geometry" />
        </mxCell>
        <mxCell id="Orui0hAEhWIHDiH9NPAQ-373" value="" style="rounded=0;whiteSpace=wrap;html=1;" parent="Orui0hAEhWIHDiH9NPAQ-370" vertex="1">
          <mxGeometry y="20" width="100" height="80" as="geometry" />
        </mxCell>
        <mxCell id="Orui0hAEhWIHDiH9NPAQ-374" value="Motor" style="text;html=1;align=center;verticalAlign=middle;whiteSpace=wrap;rounded=0;" parent="Orui0hAEhWIHDiH9NPAQ-370" vertex="1">
          <mxGeometry y="20" width="100" height="20" as="geometry" />
        </mxCell>
        <mxCell id="Orui0hAEhWIHDiH9NPAQ-375" value="    VCC (5v)" style="shape=waypoint;sketch=0;fillStyle=solid;size=6;pointerEvents=1;points=[];fillColor=none;resizable=0;rotatable=0;perimeter=centerPerimeter;snapToPoint=1;align=left;" parent="Orui0hAEhWIHDiH9NPAQ-370" vertex="1">
          <mxGeometry y="40" width="20" height="20" as="geometry" />
        </mxCell>
        <mxCell id="Orui0hAEhWIHDiH9NPAQ-376" value="    GND" style="shape=waypoint;sketch=0;fillStyle=solid;size=6;pointerEvents=1;points=[];fillColor=none;resizable=0;rotatable=0;perimeter=centerPerimeter;snapToPoint=1;align=left;" parent="Orui0hAEhWIHDiH9NPAQ-370" vertex="1">
          <mxGeometry y="60" width="20" height="20" as="geometry" />
        </mxCell>
        <mxCell id="Orui0hAEhWIHDiH9NPAQ-377" value="    MOTOCTL" style="shape=waypoint;sketch=0;fillStyle=solid;size=6;pointerEvents=1;points=[];fillColor=none;resizable=0;rotatable=0;perimeter=centerPerimeter;snapToPoint=1;align=left;" parent="Orui0hAEhWIHDiH9NPAQ-370" vertex="1">
          <mxGeometry y="80" width="20" height="20" as="geometry" />
        </mxCell>
        <mxCell id="Orui0hAEhWIHDiH9NPAQ-378" value="Data" style="text;html=1;align=center;verticalAlign=middle;whiteSpace=wrap;rounded=0;" parent="Orui0hAEhWIHDiH9NPAQ-370" vertex="1">
          <mxGeometry y="100" width="100" height="20" as="geometry" />
        </mxCell>
        <mxCell id="Orui0hAEhWIHDiH9NPAQ-379" value="    TX" style="shape=waypoint;sketch=0;fillStyle=solid;size=6;pointerEvents=1;points=[];fillColor=none;resizable=0;rotatable=0;perimeter=centerPerimeter;snapToPoint=1;align=left;" parent="Orui0hAEhWIHDiH9NPAQ-370" vertex="1">
          <mxGeometry y="120" width="20" height="20" as="geometry" />
        </mxCell>
        <mxCell id="Orui0hAEhWIHDiH9NPAQ-380" value="    RX" style="shape=waypoint;sketch=0;fillStyle=solid;size=6;pointerEvents=1;points=[];fillColor=none;resizable=0;rotatable=0;perimeter=centerPerimeter;snapToPoint=1;align=left;" parent="Orui0hAEhWIHDiH9NPAQ-370" vertex="1">
          <mxGeometry y="140" width="20" height="20" as="geometry" />
        </mxCell>
        <mxCell id="Orui0hAEhWIHDiH9NPAQ-381" value="    GND" style="shape=waypoint;sketch=0;fillStyle=solid;size=6;pointerEvents=1;points=[];fillColor=none;resizable=0;rotatable=0;perimeter=centerPerimeter;snapToPoint=1;align=left;" parent="Orui0hAEhWIHDiH9NPAQ-370" vertex="1">
          <mxGeometry y="160" width="20" height="20" as="geometry" />
        </mxCell>
        <mxCell id="Orui0hAEhWIHDiH9NPAQ-382" value="    VCC (5v)" style="shape=waypoint;sketch=0;fillStyle=solid;size=6;pointerEvents=1;points=[];fillColor=none;resizable=0;rotatable=0;perimeter=centerPerimeter;snapToPoint=1;align=left;" parent="Orui0hAEhWIHDiH9NPAQ-370" vertex="1">
          <mxGeometry y="180" width="20" height="20" as="geometry" />
        </mxCell>
        <mxCell id="Orui0hAEhWIHDiH9NPAQ-401" value="" style="group" parent="1" vertex="1" connectable="0">
          <mxGeometry x="360" y="-590" width="180" height="160" as="geometry" />
        </mxCell>
        <mxCell id="Orui0hAEhWIHDiH9NPAQ-498" value="" style="group" parent="Orui0hAEhWIHDiH9NPAQ-401" vertex="1" connectable="0">
          <mxGeometry width="180" height="160" as="geometry" />
        </mxCell>
        <mxCell id="Orui0hAEhWIHDiH9NPAQ-402" value="" style="rounded=0;whiteSpace=wrap;html=1;" parent="Orui0hAEhWIHDiH9NPAQ-498" vertex="1">
          <mxGeometry width="180" height="160" as="geometry" />
        </mxCell>
        <mxCell id="Orui0hAEhWIHDiH9NPAQ-403" value="USB Dongle" style="text;html=1;align=center;verticalAlign=middle;whiteSpace=wrap;rounded=0;" parent="Orui0hAEhWIHDiH9NPAQ-498" vertex="1">
          <mxGeometry width="180" height="20" as="geometry" />
        </mxCell>
        <mxCell id="Orui0hAEhWIHDiH9NPAQ-404" value="VCC    " style="shape=waypoint;sketch=0;fillStyle=solid;size=6;pointerEvents=1;points=[];fillColor=none;resizable=0;rotatable=0;perimeter=centerPerimeter;snapToPoint=1;align=right;" parent="Orui0hAEhWIHDiH9NPAQ-498" vertex="1">
          <mxGeometry x="160" y="20" width="20" height="20" as="geometry" />
        </mxCell>
        <mxCell id="Orui0hAEhWIHDiH9NPAQ-405" value="GND    " style="shape=waypoint;sketch=0;fillStyle=solid;size=6;pointerEvents=1;points=[];fillColor=none;resizable=0;rotatable=0;perimeter=centerPerimeter;snapToPoint=1;align=right;" parent="Orui0hAEhWIHDiH9NPAQ-498" vertex="1">
          <mxGeometry x="160" y="40" width="20" height="20" as="geometry" />
        </mxCell>
        <mxCell id="Orui0hAEhWIHDiH9NPAQ-406" value="MOTOCTL    " style="shape=waypoint;sketch=0;fillStyle=solid;size=6;pointerEvents=1;points=[];fillColor=none;resizable=0;rotatable=0;perimeter=centerPerimeter;snapToPoint=1;align=right;" parent="Orui0hAEhWIHDiH9NPAQ-498" vertex="1">
          <mxGeometry x="160" y="60" width="20" height="20" as="geometry" />
        </mxCell>
        <mxCell id="Orui0hAEhWIHDiH9NPAQ-407" value="TX    " style="shape=waypoint;sketch=0;fillStyle=solid;size=6;pointerEvents=1;points=[];fillColor=none;resizable=0;rotatable=0;perimeter=centerPerimeter;snapToPoint=1;align=right;" parent="Orui0hAEhWIHDiH9NPAQ-498" vertex="1">
          <mxGeometry x="160" y="80" width="20" height="20" as="geometry" />
        </mxCell>
        <mxCell id="Orui0hAEhWIHDiH9NPAQ-408" value="RX    " style="shape=waypoint;sketch=0;fillStyle=solid;size=6;pointerEvents=1;points=[];fillColor=none;resizable=0;rotatable=0;perimeter=centerPerimeter;snapToPoint=1;align=right;" parent="Orui0hAEhWIHDiH9NPAQ-498" vertex="1">
          <mxGeometry x="160" y="100" width="20" height="20" as="geometry" />
        </mxCell>
        <mxCell id="Orui0hAEhWIHDiH9NPAQ-409" value="GND    " style="shape=waypoint;sketch=0;fillStyle=solid;size=6;pointerEvents=1;points=[];fillColor=none;resizable=0;rotatable=0;perimeter=centerPerimeter;snapToPoint=1;align=right;" parent="Orui0hAEhWIHDiH9NPAQ-498" vertex="1">
          <mxGeometry x="160" y="120" width="20" height="20" as="geometry" />
        </mxCell>
        <mxCell id="Orui0hAEhWIHDiH9NPAQ-410" value="VCC (5v)    " style="shape=waypoint;sketch=0;fillStyle=solid;size=6;pointerEvents=1;points=[];fillColor=none;resizable=0;rotatable=0;perimeter=centerPerimeter;snapToPoint=1;align=right;" parent="Orui0hAEhWIHDiH9NPAQ-498" vertex="1">
          <mxGeometry x="160" y="140" width="20" height="20" as="geometry" />
        </mxCell>
        <mxCell id="Orui0hAEhWIHDiH9NPAQ-411" value="    TX" style="shape=waypoint;sketch=0;fillStyle=solid;size=6;pointerEvents=1;points=[];fillColor=none;resizable=0;rotatable=0;perimeter=centerPerimeter;snapToPoint=1;align=left;" parent="Orui0hAEhWIHDiH9NPAQ-498" vertex="1">
          <mxGeometry y="20" width="20" height="20" as="geometry" />
        </mxCell>
        <mxCell id="Orui0hAEhWIHDiH9NPAQ-412" value="    RX" style="shape=waypoint;sketch=0;fillStyle=solid;size=6;pointerEvents=1;points=[];fillColor=none;resizable=0;rotatable=0;perimeter=centerPerimeter;snapToPoint=1;align=left;" parent="Orui0hAEhWIHDiH9NPAQ-498" vertex="1">
          <mxGeometry y="40" width="20" height="20" as="geometry" />
        </mxCell>
        <mxCell id="Orui0hAEhWIHDiH9NPAQ-413" value="    GND" style="shape=waypoint;sketch=0;fillStyle=solid;size=6;pointerEvents=1;points=[];fillColor=none;resizable=0;rotatable=0;perimeter=centerPerimeter;snapToPoint=1;align=left;" parent="Orui0hAEhWIHDiH9NPAQ-498" vertex="1">
          <mxGeometry y="60" width="20" height="20" as="geometry" />
        </mxCell>
        <mxCell id="Orui0hAEhWIHDiH9NPAQ-414" value="    VCC (5v)" style="shape=waypoint;sketch=0;fillStyle=solid;size=6;pointerEvents=1;points=[];fillColor=none;resizable=0;rotatable=0;perimeter=centerPerimeter;snapToPoint=1;align=left;" parent="Orui0hAEhWIHDiH9NPAQ-498" vertex="1">
          <mxGeometry y="80" width="20" height="20" as="geometry" />
        </mxCell>
        <mxCell id="Orui0hAEhWIHDiH9NPAQ-515" style="edgeStyle=orthogonalEdgeStyle;rounded=0;orthogonalLoop=1;jettySize=auto;html=1;endArrow=none;startFill=0;" parent="1" source="Orui0hAEhWIHDiH9NPAQ-429" target="Orui0hAEhWIHDiH9NPAQ-411" edge="1">
          <mxGeometry relative="1" as="geometry" />
        </mxCell>
        <mxCell id="Orui0hAEhWIHDiH9NPAQ-429" value="TX    " style="shape=waypoint;sketch=0;fillStyle=solid;size=6;pointerEvents=1;points=[];fillColor=none;resizable=0;rotatable=0;perimeter=centerPerimeter;snapToPoint=1;align=right;" parent="1" vertex="1">
          <mxGeometry x="330" y="-570" width="20" height="20" as="geometry" />
        </mxCell>
        <mxCell id="Orui0hAEhWIHDiH9NPAQ-516" style="edgeStyle=orthogonalEdgeStyle;rounded=0;orthogonalLoop=1;jettySize=auto;html=1;endArrow=none;startFill=0;" parent="1" source="Orui0hAEhWIHDiH9NPAQ-430" target="Orui0hAEhWIHDiH9NPAQ-412" edge="1">
          <mxGeometry relative="1" as="geometry" />
        </mxCell>
        <mxCell id="Orui0hAEhWIHDiH9NPAQ-430" value="RX    " style="shape=waypoint;sketch=0;fillStyle=solid;size=6;pointerEvents=1;points=[];fillColor=none;resizable=0;rotatable=0;perimeter=centerPerimeter;snapToPoint=1;align=right;" parent="1" vertex="1">
          <mxGeometry x="330" y="-550" width="20" height="20" as="geometry" />
        </mxCell>
        <mxCell id="Orui0hAEhWIHDiH9NPAQ-517" style="edgeStyle=orthogonalEdgeStyle;rounded=0;orthogonalLoop=1;jettySize=auto;html=1;endArrow=none;startFill=0;" parent="1" source="Orui0hAEhWIHDiH9NPAQ-431" target="Orui0hAEhWIHDiH9NPAQ-413" edge="1">
          <mxGeometry relative="1" as="geometry" />
        </mxCell>
        <mxCell id="Orui0hAEhWIHDiH9NPAQ-431" value="GND    " style="shape=waypoint;sketch=0;fillStyle=solid;size=6;pointerEvents=1;points=[];fillColor=none;resizable=0;rotatable=0;perimeter=centerPerimeter;snapToPoint=1;align=right;" parent="1" vertex="1">
          <mxGeometry x="330" y="-530" width="20" height="20" as="geometry" />
        </mxCell>
        <mxCell id="Orui0hAEhWIHDiH9NPAQ-432" value="VCC (5v)    " style="shape=waypoint;sketch=0;fillStyle=solid;size=6;pointerEvents=1;points=[];fillColor=none;resizable=0;rotatable=0;perimeter=centerPerimeter;snapToPoint=1;align=right;" parent="1" vertex="1">
          <mxGeometry x="330" y="-510" width="20" height="20" as="geometry" />
        </mxCell>
        <mxCell id="Orui0hAEhWIHDiH9NPAQ-445" style="edgeStyle=orthogonalEdgeStyle;rounded=0;orthogonalLoop=1;jettySize=auto;html=1;entryX=0.5;entryY=0.5;entryDx=0;entryDy=0;entryPerimeter=0;endArrow=none;startFill=0;" parent="1" source="Orui0hAEhWIHDiH9NPAQ-274" target="Orui0hAEhWIHDiH9NPAQ-269" edge="1">
          <mxGeometry relative="1" as="geometry" />
        </mxCell>
        <mxCell id="Orui0hAEhWIHDiH9NPAQ-446" style="edgeStyle=orthogonalEdgeStyle;rounded=0;orthogonalLoop=1;jettySize=auto;html=1;endArrow=none;startFill=0;" parent="1" source="Orui0hAEhWIHDiH9NPAQ-275" target="Orui0hAEhWIHDiH9NPAQ-270" edge="1">
          <mxGeometry relative="1" as="geometry" />
        </mxCell>
        <mxCell id="Orui0hAEhWIHDiH9NPAQ-447" style="edgeStyle=orthogonalEdgeStyle;rounded=0;orthogonalLoop=1;jettySize=auto;html=1;entryX=0.261;entryY=0.713;entryDx=0;entryDy=0;entryPerimeter=0;endArrow=none;startFill=0;" parent="1" source="Orui0hAEhWIHDiH9NPAQ-308" target="Orui0hAEhWIHDiH9NPAQ-123" edge="1">
          <mxGeometry relative="1" as="geometry">
            <Array as="points">
              <mxPoint x="380" y="-600" />
              <mxPoint x="380" y="-610" />
              <mxPoint x="600" y="-610" />
              <mxPoint x="600" y="-620" />
            </Array>
          </mxGeometry>
        </mxCell>
        <mxCell id="Orui0hAEhWIHDiH9NPAQ-450" value="" style="edgeStyle=orthogonalEdgeStyle;rounded=0;orthogonalLoop=1;jettySize=auto;html=1;endArrow=none;startFill=0;" parent="1" source="Orui0hAEhWIHDiH9NPAQ-307" target="Orui0hAEhWIHDiH9NPAQ-449" edge="1">
          <mxGeometry relative="1" as="geometry">
            <mxPoint x="650" y="-720" as="targetPoint" />
            <mxPoint x="340" y="-620" as="sourcePoint" />
            <Array as="points">
              <mxPoint x="591" y="-620" />
            </Array>
          </mxGeometry>
        </mxCell>
        <mxCell id="Orui0hAEhWIHDiH9NPAQ-449" value="" style="shape=waypoint;sketch=0;fillStyle=solid;size=6;pointerEvents=1;points=[];fillColor=none;resizable=0;rotatable=0;perimeter=centerPerimeter;snapToPoint=1;" parent="1" vertex="1">
          <mxGeometry x="580.55" y="-730" width="20" height="20" as="geometry" />
        </mxCell>
        <mxCell id="Orui0hAEhWIHDiH9NPAQ-453" style="edgeStyle=orthogonalEdgeStyle;rounded=0;orthogonalLoop=1;jettySize=auto;html=1;entryX=0.323;entryY=0.595;entryDx=0;entryDy=0;entryPerimeter=0;endArrow=none;startFill=0;" parent="1" source="Orui0hAEhWIHDiH9NPAQ-305" target="Orui0hAEhWIHDiH9NPAQ-192" edge="1">
          <mxGeometry relative="1" as="geometry">
            <Array as="points">
              <mxPoint x="376" y="-660" />
              <mxPoint x="376" y="-700" />
            </Array>
          </mxGeometry>
        </mxCell>
        <mxCell id="Orui0hAEhWIHDiH9NPAQ-455" style="edgeStyle=orthogonalEdgeStyle;rounded=0;orthogonalLoop=1;jettySize=auto;html=1;entryX=0.553;entryY=0.822;entryDx=0;entryDy=0;entryPerimeter=0;endArrow=none;startFill=0;" parent="1" source="Orui0hAEhWIHDiH9NPAQ-303" target="Orui0hAEhWIHDiH9NPAQ-122" edge="1">
          <mxGeometry relative="1" as="geometry">
            <Array as="points">
              <mxPoint x="366" y="-700" />
              <mxPoint x="366" y="-630" />
              <mxPoint x="720" y="-630" />
              <mxPoint x="720" y="-640" />
            </Array>
          </mxGeometry>
        </mxCell>
        <mxCell id="Orui0hAEhWIHDiH9NPAQ-459" style="edgeStyle=orthogonalEdgeStyle;rounded=0;orthogonalLoop=1;jettySize=auto;html=1;entryX=0.3;entryY=0.883;entryDx=0;entryDy=0;entryPerimeter=0;endArrow=none;startFill=0;" parent="1" source="Orui0hAEhWIHDiH9NPAQ-482" target="Orui0hAEhWIHDiH9NPAQ-121" edge="1">
          <mxGeometry relative="1" as="geometry">
            <Array as="points">
              <mxPoint x="400" y="-1040" />
              <mxPoint x="400" y="-640" />
              <mxPoint x="710" y="-640" />
              <mxPoint x="710" y="-660" />
            </Array>
          </mxGeometry>
        </mxCell>
        <mxCell id="Orui0hAEhWIHDiH9NPAQ-461" style="edgeStyle=orthogonalEdgeStyle;rounded=0;orthogonalLoop=1;jettySize=auto;html=1;entryX=0.506;entryY=0.817;entryDx=0;entryDy=0;entryPerimeter=0;endArrow=none;startFill=0;" parent="1" source="Orui0hAEhWIHDiH9NPAQ-302" target="Orui0hAEhWIHDiH9NPAQ-194" edge="1">
          <mxGeometry relative="1" as="geometry">
            <Array as="points">
              <mxPoint x="390" y="-720" />
              <mxPoint x="390" y="-660" />
            </Array>
          </mxGeometry>
        </mxCell>
        <mxCell id="Orui0hAEhWIHDiH9NPAQ-463" style="edgeStyle=orthogonalEdgeStyle;rounded=0;orthogonalLoop=1;jettySize=auto;html=1;entryX=0.567;entryY=0.75;entryDx=0;entryDy=0;entryPerimeter=0;endArrow=none;startFill=0;" parent="1" source="Orui0hAEhWIHDiH9NPAQ-300" target="Orui0hAEhWIHDiH9NPAQ-100" edge="1">
          <mxGeometry relative="1" as="geometry">
            <Array as="points">
              <mxPoint x="380" y="-760" />
              <mxPoint x="380" y="-810" />
              <mxPoint x="720" y="-810" />
              <mxPoint x="720" y="-820" />
            </Array>
          </mxGeometry>
        </mxCell>
        <mxCell id="Orui0hAEhWIHDiH9NPAQ-464" style="edgeStyle=orthogonalEdgeStyle;rounded=0;orthogonalLoop=1;jettySize=auto;html=1;entryX=0.372;entryY=0.683;entryDx=0;entryDy=0;entryPerimeter=0;endArrow=none;startFill=0;" parent="1" source="Orui0hAEhWIHDiH9NPAQ-299" target="Orui0hAEhWIHDiH9NPAQ-204" edge="1">
          <mxGeometry relative="1" as="geometry">
            <Array as="points">
              <mxPoint x="590" y="-780" />
              <mxPoint x="590" y="-860" />
            </Array>
          </mxGeometry>
        </mxCell>
        <mxCell id="Orui0hAEhWIHDiH9NPAQ-465" style="edgeStyle=orthogonalEdgeStyle;rounded=0;orthogonalLoop=1;jettySize=auto;html=1;entryX=0.267;entryY=0.65;entryDx=0;entryDy=0;entryPerimeter=0;endArrow=none;startFill=0;" parent="1" source="Orui0hAEhWIHDiH9NPAQ-298" target="Orui0hAEhWIHDiH9NPAQ-101" edge="1">
          <mxGeometry relative="1" as="geometry" />
        </mxCell>
        <mxCell id="Orui0hAEhWIHDiH9NPAQ-467" style="edgeStyle=orthogonalEdgeStyle;rounded=0;orthogonalLoop=1;jettySize=auto;html=1;entryX=0.067;entryY=0.95;entryDx=0;entryDy=0;entryPerimeter=0;endArrow=none;startFill=0;" parent="1" source="Orui0hAEhWIHDiH9NPAQ-296" target="Orui0hAEhWIHDiH9NPAQ-102" edge="1">
          <mxGeometry relative="1" as="geometry">
            <Array as="points">
              <mxPoint x="356" y="-840" />
              <mxPoint x="356" y="-790" />
              <mxPoint x="600" y="-790" />
              <mxPoint x="600" y="-780" />
            </Array>
          </mxGeometry>
        </mxCell>
        <mxCell id="Orui0hAEhWIHDiH9NPAQ-468" style="edgeStyle=orthogonalEdgeStyle;rounded=0;orthogonalLoop=1;jettySize=auto;html=1;entryX=0.606;entryY=0.783;entryDx=0;entryDy=0;entryPerimeter=0;endArrow=none;startFill=0;" parent="1" source="Orui0hAEhWIHDiH9NPAQ-471" target="Orui0hAEhWIHDiH9NPAQ-207" edge="1">
          <mxGeometry relative="1" as="geometry">
            <Array as="points">
              <mxPoint x="590" y="-900" />
            </Array>
          </mxGeometry>
        </mxCell>
        <mxCell id="Orui0hAEhWIHDiH9NPAQ-470" value="" style="edgeStyle=orthogonalEdgeStyle;rounded=0;orthogonalLoop=1;jettySize=auto;html=1;entryDx=0;entryDy=0;entryPerimeter=0;endArrow=none;startFill=0;" parent="1" source="Orui0hAEhWIHDiH9NPAQ-295" target="Orui0hAEhWIHDiH9NPAQ-471" edge="1">
          <mxGeometry relative="1" as="geometry">
            <mxPoint x="340" y="-860" as="sourcePoint" />
            <mxPoint x="611" y="-900" as="targetPoint" />
            <Array as="points">
              <mxPoint x="590" y="-860" />
            </Array>
          </mxGeometry>
        </mxCell>
        <mxCell id="Orui0hAEhWIHDiH9NPAQ-471" value="" style="shape=waypoint;sketch=0;fillStyle=solid;size=6;pointerEvents=1;points=[];fillColor=none;resizable=0;rotatable=0;perimeter=centerPerimeter;snapToPoint=1;" parent="1" vertex="1">
          <mxGeometry x="580" y="-910" width="20" height="20" as="geometry" />
        </mxCell>
        <mxCell id="Orui0hAEhWIHDiH9NPAQ-473" style="edgeStyle=orthogonalEdgeStyle;rounded=0;orthogonalLoop=1;jettySize=auto;html=1;entryX=0.806;entryY=0.717;entryDx=0;entryDy=0;entryPerimeter=0;endArrow=none;startFill=0;" parent="1" source="Orui0hAEhWIHDiH9NPAQ-292" target="Orui0hAEhWIHDiH9NPAQ-214" edge="1">
          <mxGeometry relative="1" as="geometry">
            <Array as="points">
              <mxPoint x="380" y="-920" />
              <mxPoint x="380" y="-1030" />
              <mxPoint x="570" y="-1030" />
              <mxPoint x="570" y="-1040" />
            </Array>
          </mxGeometry>
        </mxCell>
        <mxCell id="Orui0hAEhWIHDiH9NPAQ-474" style="edgeStyle=orthogonalEdgeStyle;rounded=0;orthogonalLoop=1;jettySize=auto;html=1;entryX=0.533;entryY=0.217;entryDx=0;entryDy=0;entryPerimeter=0;endArrow=none;startFill=0;" parent="1" source="Orui0hAEhWIHDiH9NPAQ-291" target="Orui0hAEhWIHDiH9NPAQ-89" edge="1">
          <mxGeometry relative="1" as="geometry">
            <Array as="points">
              <mxPoint x="370" y="-940" />
              <mxPoint x="370" y="-960" />
            </Array>
          </mxGeometry>
        </mxCell>
        <mxCell id="Orui0hAEhWIHDiH9NPAQ-476" value="" style="shape=waypoint;sketch=0;fillStyle=solid;size=6;pointerEvents=1;points=[];fillColor=none;resizable=0;rotatable=0;perimeter=centerPerimeter;snapToPoint=1;" parent="1" vertex="1">
          <mxGeometry x="580" y="-1090" width="20" height="20" as="geometry" />
        </mxCell>
        <mxCell id="Orui0hAEhWIHDiH9NPAQ-477" style="edgeStyle=orthogonalEdgeStyle;rounded=0;orthogonalLoop=1;jettySize=auto;html=1;entryX=1.1;entryY=0.45;entryDx=0;entryDy=0;entryPerimeter=0;endArrow=none;startFill=0;" parent="1" source="Orui0hAEhWIHDiH9NPAQ-289" target="Orui0hAEhWIHDiH9NPAQ-88" edge="1">
          <mxGeometry relative="1" as="geometry" />
        </mxCell>
        <mxCell id="Orui0hAEhWIHDiH9NPAQ-480" style="edgeStyle=orthogonalEdgeStyle;rounded=0;orthogonalLoop=1;jettySize=auto;html=1;entryX=0.7;entryY=0.683;entryDx=0;entryDy=0;entryPerimeter=0;endArrow=none;startFill=0;" parent="1" source="Orui0hAEhWIHDiH9NPAQ-287" target="Orui0hAEhWIHDiH9NPAQ-87" edge="1">
          <mxGeometry relative="1" as="geometry">
            <Array as="points">
              <mxPoint x="370" y="-1020" />
              <mxPoint x="370" y="-990" />
              <mxPoint x="720" y="-990" />
              <mxPoint x="720" y="-1000" />
            </Array>
          </mxGeometry>
        </mxCell>
        <mxCell id="Orui0hAEhWIHDiH9NPAQ-481" value="" style="edgeStyle=orthogonalEdgeStyle;rounded=0;orthogonalLoop=1;jettySize=auto;html=1;entryDx=0;entryDy=0;entryPerimeter=0;endArrow=none;startFill=0;" parent="1" source="Orui0hAEhWIHDiH9NPAQ-286" target="Orui0hAEhWIHDiH9NPAQ-482" edge="1">
          <mxGeometry relative="1" as="geometry">
            <mxPoint x="340" y="-1040" as="sourcePoint" />
            <mxPoint x="740" y="-660" as="targetPoint" />
            <Array as="points" />
          </mxGeometry>
        </mxCell>
        <mxCell id="Orui0hAEhWIHDiH9NPAQ-483" style="edgeStyle=orthogonalEdgeStyle;rounded=0;orthogonalLoop=1;jettySize=auto;html=1;endArrow=none;startFill=0;" parent="1" source="Orui0hAEhWIHDiH9NPAQ-482" target="Orui0hAEhWIHDiH9NPAQ-86" edge="1">
          <mxGeometry relative="1" as="geometry">
            <Array as="points">
              <mxPoint x="430" y="-1040" />
              <mxPoint x="430" y="-1000" />
              <mxPoint x="710" y="-1000" />
              <mxPoint x="710" y="-1020" />
            </Array>
          </mxGeometry>
        </mxCell>
        <mxCell id="Orui0hAEhWIHDiH9NPAQ-482" value="" style="shape=waypoint;sketch=0;fillStyle=solid;size=6;pointerEvents=1;points=[];fillColor=none;resizable=0;rotatable=0;perimeter=centerPerimeter;snapToPoint=1;" parent="1" vertex="1">
          <mxGeometry x="390" y="-1050" width="20" height="20" as="geometry" />
        </mxCell>
        <mxCell id="Orui0hAEhWIHDiH9NPAQ-518" style="edgeStyle=orthogonalEdgeStyle;rounded=0;orthogonalLoop=1;jettySize=auto;html=1;entryX=0.5;entryY=0.5;entryDx=0;entryDy=0;entryPerimeter=0;endArrow=none;startFill=0;" parent="1" source="Orui0hAEhWIHDiH9NPAQ-432" target="Orui0hAEhWIHDiH9NPAQ-414" edge="1">
          <mxGeometry relative="1" as="geometry" />
        </mxCell>
        <mxCell id="Orui0hAEhWIHDiH9NPAQ-520" style="edgeStyle=orthogonalEdgeStyle;rounded=0;orthogonalLoop=1;jettySize=auto;html=1;endArrow=none;startFill=0;" parent="1" source="Orui0hAEhWIHDiH9NPAQ-410" target="Orui0hAEhWIHDiH9NPAQ-382" edge="1">
          <mxGeometry relative="1" as="geometry">
            <Array as="points">
              <mxPoint x="550" y="-440" />
              <mxPoint x="550" y="-400" />
            </Array>
          </mxGeometry>
        </mxCell>
        <mxCell id="Orui0hAEhWIHDiH9NPAQ-521" style="edgeStyle=orthogonalEdgeStyle;rounded=0;orthogonalLoop=1;jettySize=auto;html=1;endArrow=none;startFill=0;" parent="1" source="Orui0hAEhWIHDiH9NPAQ-409" target="Orui0hAEhWIHDiH9NPAQ-381" edge="1">
          <mxGeometry relative="1" as="geometry">
            <Array as="points">
              <mxPoint x="560" y="-460" />
              <mxPoint x="560" y="-420" />
            </Array>
          </mxGeometry>
        </mxCell>
        <mxCell id="Orui0hAEhWIHDiH9NPAQ-522" style="edgeStyle=orthogonalEdgeStyle;rounded=0;orthogonalLoop=1;jettySize=auto;html=1;entryX=0.067;entryY=0.804;entryDx=0;entryDy=0;entryPerimeter=0;endArrow=none;startFill=0;" parent="1" source="Orui0hAEhWIHDiH9NPAQ-408" target="Orui0hAEhWIHDiH9NPAQ-380" edge="1">
          <mxGeometry relative="1" as="geometry">
            <Array as="points">
              <mxPoint x="570" y="-480" />
              <mxPoint x="570" y="-440" />
            </Array>
          </mxGeometry>
        </mxCell>
        <mxCell id="Orui0hAEhWIHDiH9NPAQ-523" style="edgeStyle=orthogonalEdgeStyle;rounded=0;orthogonalLoop=1;jettySize=auto;html=1;entryX=-0.011;entryY=0.457;entryDx=0;entryDy=0;entryPerimeter=0;endArrow=none;startFill=0;" parent="1" source="Orui0hAEhWIHDiH9NPAQ-407" target="Orui0hAEhWIHDiH9NPAQ-379" edge="1">
          <mxGeometry relative="1" as="geometry">
            <Array as="points">
              <mxPoint x="550" y="-500" />
              <mxPoint x="550" y="-490" />
              <mxPoint x="580" y="-490" />
              <mxPoint x="580" y="-460" />
            </Array>
          </mxGeometry>
        </mxCell>
        <mxCell id="Orui0hAEhWIHDiH9NPAQ-524" style="edgeStyle=orthogonalEdgeStyle;rounded=0;orthogonalLoop=1;jettySize=auto;html=1;entryX=0.672;entryY=0.594;entryDx=0;entryDy=0;entryPerimeter=0;endArrow=none;startFill=0;" parent="1" source="Orui0hAEhWIHDiH9NPAQ-404" target="Orui0hAEhWIHDiH9NPAQ-375" edge="1">
          <mxGeometry relative="1" as="geometry">
            <Array as="points">
              <mxPoint x="580" y="-560" />
              <mxPoint x="580" y="-540" />
            </Array>
          </mxGeometry>
        </mxCell>
        <mxCell id="Orui0hAEhWIHDiH9NPAQ-525" style="edgeStyle=orthogonalEdgeStyle;rounded=0;orthogonalLoop=1;jettySize=auto;html=1;endArrow=none;startFill=0;" parent="1" source="Orui0hAEhWIHDiH9NPAQ-405" target="Orui0hAEhWIHDiH9NPAQ-376" edge="1">
          <mxGeometry relative="1" as="geometry">
            <Array as="points">
              <mxPoint x="570" y="-540" />
              <mxPoint x="570" y="-520" />
            </Array>
          </mxGeometry>
        </mxCell>
        <mxCell id="Orui0hAEhWIHDiH9NPAQ-526" style="edgeStyle=orthogonalEdgeStyle;rounded=0;orthogonalLoop=1;jettySize=auto;html=1;entryX=0.5;entryY=0.5;entryDx=0;entryDy=0;entryPerimeter=0;endArrow=none;startFill=0;" parent="1" source="Orui0hAEhWIHDiH9NPAQ-406" target="Orui0hAEhWIHDiH9NPAQ-377" edge="1">
          <mxGeometry relative="1" as="geometry">
            <Array as="points">
              <mxPoint x="560" y="-520" />
              <mxPoint x="560" y="-500" />
            </Array>
          </mxGeometry>
        </mxCell>
        <mxCell id="LZgNYY5IlDtzuVHjER0S-5" style="edgeStyle=orthogonalEdgeStyle;rounded=0;orthogonalLoop=1;jettySize=auto;html=1;endArrow=none;startFill=0;" edge="1" parent="1" source="LZgNYY5IlDtzuVHjER0S-4" target="Orui0hAEhWIHDiH9NPAQ-238">
          <mxGeometry relative="1" as="geometry" />
        </mxCell>
        <mxCell id="LZgNYY5IlDtzuVHjER0S-4" value="" style="shape=waypoint;sketch=0;fillStyle=solid;size=6;pointerEvents=1;points=[];fillColor=none;resizable=0;rotatable=0;perimeter=centerPerimeter;snapToPoint=1;" vertex="1" parent="1">
          <mxGeometry x="410" y="-930" width="20" height="20" as="geometry" />
        </mxCell>
        <mxCell id="LZgNYY5IlDtzuVHjER0S-16" value="" style="edgeStyle=orthogonalEdgeStyle;rounded=0;orthogonalLoop=1;jettySize=auto;html=1;endArrow=none;startFill=0;" edge="1" parent="1">
          <mxGeometry relative="1" as="geometry">
            <Array as="points">
              <mxPoint x="420" y="-825" />
              <mxPoint x="420" y="-825" />
            </Array>
            <mxPoint x="430" y="-920" as="sourcePoint" />
            <mxPoint x="420" y="-740" as="targetPoint" />
          </mxGeometry>
        </mxCell>
        <mxCell id="LZgNYY5IlDtzuVHjER0S-21" style="edgeStyle=orthogonalEdgeStyle;rounded=0;orthogonalLoop=1;jettySize=auto;html=1;endArrow=none;startFill=0;" edge="1" parent="1" source="LZgNYY5IlDtzuVHjER0S-18" target="Orui0hAEhWIHDiH9NPAQ-222">
          <mxGeometry relative="1" as="geometry" />
        </mxCell>
        <mxCell id="LZgNYY5IlDtzuVHjER0S-19" style="edgeStyle=orthogonalEdgeStyle;rounded=0;orthogonalLoop=1;jettySize=auto;html=1;endArrow=none;startFill=0;" edge="1" parent="1" source="LZgNYY5IlDtzuVHjER0S-18">
          <mxGeometry relative="1" as="geometry">
            <mxPoint x="420" y="-1100" as="targetPoint" />
            <Array as="points">
              <mxPoint x="420" y="-1120" />
              <mxPoint x="420" y="-1100" />
            </Array>
          </mxGeometry>
        </mxCell>
        <mxCell id="LZgNYY5IlDtzuVHjER0S-20" style="edgeStyle=orthogonalEdgeStyle;rounded=0;orthogonalLoop=1;jettySize=auto;html=1;endArrow=none;startFill=0;" edge="1" parent="1" source="LZgNYY5IlDtzuVHjER0S-4">
          <mxGeometry relative="1" as="geometry">
            <mxPoint x="420" y="-1100" as="targetPoint" />
            <Array as="points">
              <mxPoint x="420" y="-920" />
            </Array>
          </mxGeometry>
        </mxCell>
        <mxCell id="LZgNYY5IlDtzuVHjER0S-23" value="" style="edgeStyle=orthogonalEdgeStyle;rounded=0;orthogonalLoop=1;jettySize=auto;html=1;endArrow=none;startFill=0;" edge="1" parent="1" source="Orui0hAEhWIHDiH9NPAQ-168" target="LZgNYY5IlDtzuVHjER0S-18">
          <mxGeometry relative="1" as="geometry">
            <mxPoint x="339" y="-1120" as="sourcePoint" />
            <mxPoint x="420" y="-1100" as="targetPoint" />
            <Array as="points">
              <mxPoint x="420" y="-1120" />
            </Array>
          </mxGeometry>
        </mxCell>
        <mxCell id="LZgNYY5IlDtzuVHjER0S-18" value="" style="shape=waypoint;sketch=0;fillStyle=solid;size=6;pointerEvents=1;points=[];fillColor=none;resizable=0;rotatable=0;perimeter=centerPerimeter;snapToPoint=1;" vertex="1" parent="1">
          <mxGeometry x="410" y="-1110" width="20" height="20" as="geometry" />
        </mxCell>
        <mxCell id="LZgNYY5IlDtzuVHjER0S-28" style="edgeStyle=orthogonalEdgeStyle;rounded=0;orthogonalLoop=1;jettySize=auto;html=1;endArrow=oval;endFill=1;" edge="1" parent="1" source="Orui0hAEhWIHDiH9NPAQ-167">
          <mxGeometry relative="1" as="geometry">
            <mxPoint x="410" y="-1080" as="targetPoint" />
            <Array as="points">
              <mxPoint x="410" y="-1100" />
              <mxPoint x="410" y="-1080" />
            </Array>
          </mxGeometry>
        </mxCell>
      </root>
    </mxGraphModel>
  </diagram>
</mxfile>
